<?xml version="1.0" encoding="UTF-8" standalone="no"?>
<!-- Created with Inkscape (http://www.inkscape.org/) -->

<svg
   xmlns:dc="http://purl.org/dc/elements/1.1/"
   xmlns:cc="http://creativecommons.org/ns#"
   xmlns:rdf="http://www.w3.org/1999/02/22-rdf-syntax-ns#"
   xmlns:svg="http://www.w3.org/2000/svg"
   xmlns="http://www.w3.org/2000/svg"
   xmlns:sodipodi="http://sodipodi.sourceforge.net/DTD/sodipodi-0.dtd"
   xmlns:inkscape="http://www.inkscape.org/namespaces/inkscape"
   width="173.88193mm"
   height="73.734047mm"
   viewBox="0 0 173.88193 73.734047"
   version="1.1"
   id="svg170"
   inkscape:version="0.92.1 r15371"
   sodipodi:docname="LogoFont.svg">
  <defs
     id="defs164" />
  <sodipodi:namedview
     id="base"
     pagecolor="#ffffff"
     bordercolor="#666666"
     borderopacity="1.0"
     inkscape:pageopacity="0.0"
     inkscape:pageshadow="2"
     inkscape:zoom="0.98994949"
     inkscape:cx="366.03126"
     inkscape:cy="-142.473"
     inkscape:document-units="mm"
     inkscape:current-layer="layer1"
     showgrid="false"
     fit-margin-left="0.4"
     fit-margin-top="0.4"
     fit-margin-bottom="0.4"
     fit-margin-right="0.4"
     inkscape:window-width="1920"
     inkscape:window-height="1017"
     inkscape:window-x="-8"
     inkscape:window-y="-8"
     inkscape:window-maximized="1" />
  <metadata
     id="metadata167">
    <rdf:RDF>
      <cc:Work
         rdf:about="">
        <dc:format>image/svg+xml</dc:format>
        <dc:type
           rdf:resource="http://purl.org/dc/dcmitype/StillImage" />
        <dc:title></dc:title>
      </cc:Work>
    </rdf:RDF>
  </metadata>
  <g
     inkscape:label="Layer 1"
     inkscape:groupmode="layer"
     id="layer1"
     transform="translate(-0.1167392,-0.08535306)">
    <g
       aria-label="OpenFlute
"
       transform="scale(0.69202381,1.445037)"
       style="font-style:normal;font-variant:normal;font-weight:bold;font-stretch:normal;font-size:53.50165558px;line-height:1.25;font-family:'Berlin Sans FB Demi';-inkscape-font-specification:'Berlin Sans FB Demi, Bold';font-variant-ligatures:normal;font-variant-caps:normal;font-variant-numeric:normal;font-feature-settings:normal;text-align:start;letter-spacing:0px;word-spacing:0px;writing-mode:lr-tb;text-anchor:start;fill:#f2f2f2;fill-opacity:1;stroke:none;stroke-width:1.3375411"
       id="text4053" />
    <g
       aria-label=".org"
       transform="scale(0.99893292,1.0010682)"
       style="font-style:normal;font-variant:normal;font-weight:bold;font-stretch:normal;font-size:21.70467758px;line-height:1.25;font-family:'Berlin Sans FB Demi';-inkscape-font-specification:'Berlin Sans FB Demi, Bold';font-variant-ligatures:normal;font-variant-caps:normal;font-variant-numeric:normal;font-feature-settings:normal;text-align:start;letter-spacing:0px;word-spacing:0px;writing-mode:lr-tb;text-anchor:start;fill:#f2f2f2;fill-opacity:1;stroke:none;stroke-width:0.54261696"
       id="text4097">
      <path
         id="path45"
         style="font-style:normal;font-variant:normal;font-weight:bold;font-stretch:normal;font-size:21.70467758px;font-family:'Berlin Sans FB Demi';-inkscape-font-specification:'Berlin Sans FB Demi, Bold';font-variant-ligatures:normal;font-variant-caps:normal;font-variant-numeric:normal;font-feature-settings:normal;text-align:start;writing-mode:lr-tb;text-anchor:start;fill:#f2f2f2;stroke-width:0.54261696"
         d="m 163.59544,67.660539 q 0,3.020426 -1.27176,4.334577 -1.31415,1.345944 -4.36637,1.345944 -0.89023,0 -2.42694,-0.286146 -1.96062,-0.360331 -1.96062,-0.847839 0,-0.201361 0.45571,-2.077205 0.0742,-0.296744 0.23316,-0.296744 0.053,0.0106 0.11657,0.04239 1.63209,0.805447 3.02043,0.805447 0.76306,0 1.51551,-0.381527 0.91143,-0.455714 0.91143,-1.144583 V 68.44479 q -1.081,1.017407 -2.77667,1.017407 -1.99242,0 -3.27478,-1.430728 -1.23997,-1.377739 -1.23997,-3.391356 0,-2.024216 1.18698,-3.359562 1.23996,-1.388337 3.24298,-1.388337 1.6003,0 2.44814,1.144583 0.16957,0.233156 0.23315,0.233156 0.0954,0 0.0954,-0.381528 0,-0.847839 0.19076,-0.847839 0.16957,0 1.83345,0.180166 1.66389,0.169568 1.72747,0.190764 0.18017,0.06359 0.18017,0.275547 0,0.731262 -0.053,2.183186 -0.0424,1.451924 -0.0424,2.183185 0,0.434518 0.0106,1.303553 0.0106,0.869035 0.0106,1.303552 z m -3.6669,-2.935642 q 0,-0.773654 -0.5193,-1.335347 -0.50871,-0.572291 -1.28236,-0.572291 -0.77365,0 -1.29295,0.582889 -0.50871,0.572291 -0.50871,1.345945 0,0.773653 0.51931,1.335346 0.52989,0.561693 1.28235,0.561693 0.77365,0 1.28236,-0.572291 0.5193,-0.572291 0.5193,-1.345944 z m -8.12866,-0.911427 q 0,0.413321 -0.45571,0.413321 -0.20136,0 -0.59349,-0.0212 -0.38152,-0.03179 -0.57229,-0.03179 -0.87963,0 -1.19757,0.275548 -0.31794,0.275548 -0.31794,1.112789 0,0.455713 0.0106,1.388336 0.0212,0.922025 0.0212,1.377738 0,0.307342 0.0424,0.922025 0.0424,0.604085 0.0424,0.900829 0,0.254352 -0.34974,0.286146 -0.5087,0.04239 -1.5579,0.04239 -1.00681,0 -1.61089,-0.06359 -0.34974,-0.04239 -0.34974,-0.349734 0,-0.847839 0.0106,-2.532919 0.0106,-1.695678 0.0106,-2.543517 0,-2.490527 -0.45572,-4.101421 -0.0212,-0.09538 -0.0212,-0.15897 0,-0.158969 0.15897,-0.211959 0.58289,-0.06359 1.70627,-0.233156 1.67449,-0.328538 1.72748,-0.328538 0.19076,0 0.24375,0.667674 0.053,0.667673 0.19076,0.667673 -0.14837,0 0.86904,-0.551096 1.01741,-0.561693 1.96063,-0.561693 0.59348,0 0.59348,0.254352 0,0.307341 -0.0636,0.869035 -0.0636,0.604085 -0.0742,0.869035 0,0.307341 0.0106,0.816045 0.0212,0.625281 0.0212,0.826643 z m -8.31942,1.388336 q 0,2.416341 -1.48371,3.921255 -1.47313,1.504914 -3.87887,1.504914 -2.33156,0 -3.83647,-1.483718 -1.50491,-1.483718 -1.50491,-3.815275 0,-2.458733 1.44132,-3.984843 1.44133,-1.536708 3.90006,-1.536708 2.39515,0 3.87887,1.504914 1.48371,1.494316 1.48371,3.889461 z m -3.47614,0 q 0,-0.837241 -0.5193,-1.47312 -0.5193,-0.646477 -1.34594,-0.646477 -0.83724,0 -1.37774,0.657075 -0.5087,0.614683 -0.5087,1.462522 0,0.858437 0.5087,1.47312 0.5405,0.657075 1.37774,0.657075 0.82664,0 1.36714,-0.657075 0.4981,-0.614683 0.4981,-1.47312 z m -8.19224,2.89325 q 0,1.049201 -0.73126,1.79106 -0.72066,0.741859 -1.75927,0.741859 -1.0386,0 -1.75926,-0.741859 -0.72067,-0.752457 -0.72067,-1.79106 0,-1.038602 0.72067,-1.780461 0.72066,-0.741859 1.75926,-0.741859 1.03861,0 1.75927,0.741859 0.73126,0.741859 0.73126,1.780461 z m 41.97203,-33.784659 q 0,3.808674 -1.17634,4.336609 -0.19908,0.07542 -3.74622,0.829613 -2.13552,0.490225 -6.37037,1.169 0.25337,2.451127 1.5383,3.733255 1.04966,1.055871 2.38889,1.055871 1.61069,0 3.23948,-1.810064 0.68771,-0.905031 1.37542,-1.810063 0.38005,0.377097 1.26683,3.846384 0.90488,3.469289 0.90488,4.412031 0,0.263968 -0.27146,0.867322 -2.20791,4.939964 -6.85901,4.939964 -4.30723,0 -6.94949,-5.241642 -2.71465,-5.317061 -2.71465,-14.21654 0,-8.673221 2.42509,-14.216539 2.49747,-5.731868 6.62373,-5.731868 3.47475,0 5.89984,5.279351 2.42508,5.279352 2.42508,12.557316 z m -6.33417,-2.300289 q 0,-2.337999 -0.7963,-4.110352 -0.7963,-1.772355 -1.90025,-1.772355 -1.14015,0 -1.88216,1.998612 -0.68771,1.847774 -0.68771,4.33661 0,1.018161 0.50673,1.018161 1.33923,0 4.16246,-0.867321 0.59723,-0.18855 0.59723,-0.603355 z m -12.17972,11.727703 q 0,1.13129 -0.14478,3.431579 -0.12668,2.300288 -0.12668,3.393869 0,1.05587 -0.10859,1.357546 -0.10858,0.301678 -0.59722,0.867323 -2.33459,2.677386 -5.17593,2.677386 -5.23021,0 -5.23021,-8.333834 0,-2.488838 0.0905,-7.466513 0.0905,-5.015383 0.0905,-7.504221 0,-1.659224 -0.92299,-1.659224 -0.0724,0 -0.23527,0 -0.16287,0.0377 -0.23527,0.0377 -0.68771,0 -0.68771,-1.018162 0,-0.603354 0.0362,-1.847772 0.0543,-1.24442 0.0543,-1.847773 0,-0.791903 -0.0543,-2.413419 -0.0362,-1.621515 -0.0362,-2.413418 0,-0.754193 1.15825,-0.829613 0.65152,-0.0377 0.70581,-0.754193 0.10858,-1.432966 0.0724,-4.525157 -0.0724,-4.864547 -0.0724,-4.638289 0,-4.3743198 0.39815,-4.3743198 0.48864,0 1.39352,0.4525158 1.03156,0.4902257 1.42971,0.565645 0.92298,0.2639676 2.78704,0.7164833 0.45244,0.07542 0.45244,0.6410643 0,1.5083862 -0.12668,4.5628684 -0.10859,3.054482 -0.10859,4.600578 0,1.847773 0.52483,1.847773 0.63342,0 1.91835,-0.113126 1.28493,-0.113127 1.93645,-0.113127 0.39815,0 0.39815,0.565644 0,0.867322 -0.0905,2.601967 -0.0905,1.734644 -0.0905,2.601967 0,0.905031 0.0181,2.639674 0.0181,1.734645 0.0181,2.639676 0,0.791903 -0.52483,0.791903 -0.36195,0 -1.21255,-0.0377 -0.85059,-0.07542 -1.21253,-0.07542 h -1.35733 q -0.27146,0 -0.27146,1.659224 0,0.905033 0,2.677386 0.0181,1.810064 0.0181,2.677386 0,3.167612 0.34386,4.37432 0.48863,1.621516 1.91834,1.621516 0.45245,0 1.28494,-0.414807 0.85059,-0.452516 1.19444,-0.452516 0.38005,0 0.38005,0.829613 z M 140.1406,20.508662 q 0,2.790515 -0.12668,8.371544 -0.12669,5.581029 -0.12669,8.371544 0,2.715094 0.0905,8.145285 0.0905,5.430191 0.0905,8.107576 0,1.018161 -0.45245,1.282128 -0.6877,0.377097 -2.91372,0.377097 -1.97264,0 -2.75083,-0.226257 -0.34386,-0.113127 -0.43434,-0.905033 -0.0543,-1.131289 -0.10859,-2.262579 -0.0905,-1.734643 -0.25337,-1.734643 0.25337,0 -1.82786,2.564256 -2.08123,2.564256 -3.78241,2.564256 -4.79588,0 -5.68266,-9.012607 -0.39815,-4.185772 -0.39815,-12.14251 0,-8.597802 0.66962,-13.575476 0.19907,-1.546096 0.742,-1.546096 0.83249,0 2.53367,0.0377 1.70118,0.0377 2.53367,0.0377 0.56103,0 0.56103,0.980451 0,0.263967 -0.0362,0.791903 -0.38005,5.128512 -0.38005,10.407865 0,6.56148 0.19907,8.974898 0.32576,4.148062 2.37079,4.148062 0.7963,0 1.71927,-1.470677 0.94108,-1.470676 0.97728,-3.054482 0.0362,-1.395256 0.0362,-18.930247 0,-1.244418 0.0905,-1.470676 0.10858,-0.377097 0.65151,-0.377097 0.88679,0 2.66035,0.0377 1.79167,0.0377 2.67845,0.0377 0.54294,0 0.63342,0.565644 0.0362,0.301677 0.0362,0.905032 z m -21.95244,11.576865 q 0,10.294736 0.0362,15.800346 0,0.867322 0.0543,2.979063 0.0543,1.923192 0.0543,2.979062 0,0.791903 -0.45245,0.942741 -0.81439,0.301678 -2.93181,0.301678 -2.17172,0 -2.76894,-0.301678 -0.39815,-0.188548 -0.45244,-1.01816 0,-0.113127 0,-1.621515 0,-3.35616 0.0362,-10.030769 0.0362,-6.712318 0.0362,-10.030768 0,-15.838056 0.0181,-14.442798 -0.0543,-8.3338343 -0.45244,-14.3673792 -0.0362,-0.4148062 -0.0362,-0.6410643 0,-0.8296124 0.47054,-0.8296124 h 6.46086 q 0.45244,0 0.41624,0.7919028 l -0.0181,0.6787739 Q 118.1882,19.565922 118.1882,32.085527 Z M 109.57367,14.17344 q 0,0.414807 -0.36195,0.414807 -1.35733,0 -4.12627,-0.490226 -2.75083,-0.490226 -4.12625,-0.490226 -1.737375,0 -2.026943,0.263968 -0.669611,0.641064 -0.669611,3.620128 0,3.582417 0.86869,4.072642 0.361948,0.188548 1.103954,0.188548 1.24874,0 3.72812,-0.263968 2.49747,-0.301677 3.7462,-0.301677 0.59723,0 0.59723,6.6369 0,5.769577 -0.19907,6.712318 -0.12669,0.678775 -0.48865,0.678775 0.23527,0 -1.14014,-0.263968 -1.93645,-0.377097 -5.86364,-0.377097 -1.266836,0 -1.429712,0.0377 -0.922982,0.301678 -0.922982,1.621516 0,5.35477 0.217175,12.331056 0.180977,6.297513 0.180977,5.61874 0,0.980451 -1.140156,1.131289 0.307663,-0.03771 -1.610688,-0.03771 -3.384259,0 -4.361533,-0.490226 -0.52483,-0.263968 -0.52483,-1.168999 0,-4.185772 0.126686,-12.557316 0.14478,-8.409253 0.14478,-12.595025 0,-4.977674 -0.217174,-12.519605 Q 90.752125,4.293509 90.73403,3.4261869 L 90.715949,2.973671 q -0.01808,-0.9427414 0.542932,-0.9427414 1.339222,0 4.035774,0.1131296 2.714648,0.1131295 4.071971,0.1131295 1.447804,0 4.343434,-0.4525159 2.91372,-0.4525158 4.36153,-0.4525158 0.90488,0 1.01347,1.5460958 0,1.6215153 0.0724,4.8645456 0.0362,0.8296126 0.23527,3.2053206 0.18097,2.074031 0.18097,3.205321 z M 87.747923,53.69316 q 0,1.018161 -0.506735,1.168999 -0.506735,0.150839 -2.642254,0.150839 -2.280305,0 -2.823231,-0.226259 -0.542932,-0.226258 -0.542932,-1.546096 0,-1.772353 0.05431,-5.35477 0.05431,-3.582417 0.05431,-5.392481 0,-1.395257 -0.03616,-4.148062 -0.03623,-2.790515 -0.03623,-4.185771 0,-5.166225 -2.153621,-5.166225 -0.705807,0 -1.646884,1.28213 -1.013471,1.432966 -1.013471,2.828224 v 20.363215 q 0,1.244418 -0.561027,1.395256 -0.633414,0.150839 -2.587962,0.150839 -2.117424,0 -2.750838,-0.226259 -0.561027,-0.188548 -0.561027,-1.244418 0,-2.941352 0.01808,-8.861769 0.01808,-5.920416 0.01808,-8.899479 0,-9.389705 -0.705807,-14.744475 -0.03616,-0.339388 -0.03616,-0.565645 0,-0.603355 0.27146,-0.829613 1.140156,-0.263968 3.040405,-0.829611 2.877523,-1.169 3.239478,-1.169 0.199072,0 0.307663,2.564256 0.108583,2.526547 0.307656,2.526547 -0.199073,0 1.936446,-2.601967 2.15362,-2.639674 3.764315,-2.639674 2.2984,0 3.836695,2.262578 1.719278,2.601967 1.719278,7.240254 v 12.029381 q 0,2.451128 0.01808,7.353383 0.01808,4.864545 0.01808,7.315673 z M 67.804324,34.310397 q 0,3.808674 -1.176347,4.336609 -0.199074,0.07542 -3.746212,0.829613 -2.135521,0.490225 -6.370369,1.169 0.253367,2.451127 1.538299,3.733255 1.049663,1.055871 2.388889,1.055871 1.61069,0 3.239477,-1.810064 0.687711,-0.905031 1.375421,-1.810063 0.380051,0.377097 1.266835,3.846384 0.904882,3.469289 0.904882,4.412031 0,0.263968 -0.271464,0.867322 -2.207913,4.939964 -6.859007,4.939964 -4.307238,0 -6.949494,-5.241642 -2.714646,-5.317061 -2.714646,-14.21654 0,-8.673221 2.425084,-14.216539 2.497474,-5.731868 6.623737,-5.731868 3.474747,0 5.899831,5.279351 2.425084,5.279352 2.425084,12.557316 z m -6.334175,-2.300289 q 0,-2.337999 -0.796296,-4.110352 -0.796296,-1.772355 -1.900252,-1.772355 -1.140152,0 -1.882155,1.998612 -0.687711,1.847774 -0.687711,4.33661 0,1.018161 0.506734,1.018161 1.339226,0 4.162458,-0.867321 0.597222,-0.18855 0.597222,-0.603355 z m -12.577863,4.638287 q 0,8.069866 -2.280303,13.386929 -2.352693,5.50561 -6.171295,5.50561 -1.393519,0 -2.986111,-1.432968 Q 35.861984,52.675 36.006765,52.675 q -0.235269,0 -0.235269,1.131288 0,1.923193 0.09049,5.769578 0.09049,3.884094 0.09049,5.807287 0,1.206709 -0.597223,1.206709 l -3.691919,0.0377 q -1.248737,0 -1.61069,-0.188548 -0.542929,-0.263968 -0.542929,-1.395258 l 0.0362,-29.036434 q 0,-8.786351 -0.633418,-14.819896 -0.0362,-0.377096 -0.0362,-0.641063 0,-0.565646 0.217172,-0.754193 0.705808,-0.565645 2.696549,-1.20671 1.936447,-0.641064 2.805134,-0.641064 0.705808,0 0.796296,1.960902 0.108586,1.923193 0.253367,1.923193 -0.180976,0 1.5383,-2.036321 1.737374,-2.074031 3.14899,-2.074031 3.927188,0 6.279881,5.39248 2.280303,5.203932 2.280303,13.537766 z m -6.714225,-0.07542 q 0,-3.016772 -0.886784,-5.279351 -0.959175,-2.375709 -2.370791,-2.375709 -1.447812,0 -2.316499,2.375709 -0.760101,2.149449 -0.760101,5.279351 0,3.205321 0.796297,5.317062 0.850589,2.300288 2.352693,2.300288 3.185185,0 3.185185,-7.61735 z M 26.324528,28.389981 q 0,11.765413 -3.60143,19.72215 -3.673822,8.069866 -9.302188,8.069866 -5.5921715,0 -9.2840905,-8.145286 -3.61952831,-7.956737 -3.61952831,-19.64673 0,-11.727703 3.61952831,-19.7221504 3.691919,-8.18299544 9.2840905,-8.18299544 5.555976,0 9.265992,8.18299544 3.637626,8.0698654 3.637626,19.7221504 z m -6.859006,-0.07542 q 0,-5.656448 -1.646885,-9.615962 -1.719276,-4.148062 -4.397727,-4.148062 -2.551768,0 -4.3253365,4.2989 -1.7192765,4.148062 -1.7192765,9.540544 0,5.769578 1.6106907,9.615962 1.7011783,4.034933 4.4339223,4.034933 2.551767,0 4.343433,-4.261191 1.701179,-4.072643 1.701179,-9.465124 z"
         inkscape:connector-curvature="0" />
    </g>
  </g>
</svg>
