<?xml version="1.0" encoding="UTF-8" standalone="no"?>
<!-- Created with Inkscape (http://www.inkscape.org/) -->

<svg
   xmlns:dc="http://purl.org/dc/elements/1.1/"
   xmlns:cc="http://creativecommons.org/ns#"
   xmlns:rdf="http://www.w3.org/1999/02/22-rdf-syntax-ns#"
   xmlns:svg="http://www.w3.org/2000/svg"
   xmlns="http://www.w3.org/2000/svg"
   xmlns:sodipodi="http://sodipodi.sourceforge.net/DTD/sodipodi-0.dtd"
   xmlns:inkscape="http://www.inkscape.org/namespaces/inkscape"
   width="152.75529mm"
   height="155.8604mm"
   viewBox="0 0 152.75529 155.8604"
   version="1.1"
   id="svg8"
   inkscape:version="0.92.1 r15371"
   sodipodi:docname="logo.v1.0.svg">
  <defs
     id="defs2" />
  <sodipodi:namedview
     id="base"
     pagecolor="#ffffff"
     bordercolor="#666666"
     borderopacity="1.0"
     inkscape:pageopacity="0.0"
     inkscape:pageshadow="2"
     inkscape:zoom="1.4142136"
     inkscape:cx="228.97598"
     inkscape:cy="323.95206"
     inkscape:document-units="mm"
     inkscape:current-layer="layer1"
     showgrid="false"
     inkscape:window-width="1920"
     inkscape:window-height="1017"
     inkscape:window-x="-8"
     inkscape:window-y="-8"
     inkscape:window-maximized="1"
     fit-margin-left="0.5"
     fit-margin-top="0.5"
     fit-margin-right="0.5"
     fit-margin-bottom="0.5" />
  <metadata
     id="metadata5">
    <rdf:RDF>
      <cc:Work
         rdf:about="">
        <dc:format>image/svg+xml</dc:format>
        <dc:type
           rdf:resource="http://purl.org/dc/dcmitype/StillImage" />
        <dc:title></dc:title>
      </cc:Work>
    </rdf:RDF>
  </metadata>
  <g
     inkscape:label="Layer 1"
     inkscape:groupmode="layer"
     id="layer1"
     transform="translate(-4.3596883,-2.5137707)">
    <g
       id="g3920"
       transform="matrix(-0.26458333,0,0,0.26458333,157.33181,2.4866623)"
       style="fill-rule:evenodd">
      <path
         id="path3680"
         d="m 349.95,327.12 c -9.0316,0 -16.362,7.3636 -16.362,16.437 0,9.0734 7.3305,16.437 16.362,16.437 9.0326,0 16.362,-7.3636 16.362,-16.437 0,-9.0734 -7.3295,-16.437 -16.362,-16.437"
         inkscape:connector-curvature="0"
         style="fill:#ffffff" />
      <g
         id="g3918"
         stroke-miterlimit="10"
         style="stroke:#000000;stroke-width:0.036;stroke-miterlimit:10">
        <path
           id="path3682"
           d="m 550.02,552.69 c -0.4278,-1.146 -1.0695,-2.0423 -1.7824,-2.687 -0.74854,-0.68048 -1.6397,-1.3251 -2.6735,-1.539 -0.92682,-0.32233 -1.6755,-0.39392 -2.6379,-0.21594 l -34.578,-36.744 2.8875,-2.9009 c 1.6754,0.2139 3.03,0.0716 4.2064,-0.42975 1.2833,-0.53821 2.1745,-0.96799 2.6735,-2.687 0.64172,-1.8265 1.6754,-4.9064 0.21387,-7.9854 -1.4971,-3.2232 -4.848,-8.1296 -9.0901,-10.708 -4.0638,-2.7566 -11.978,-5.3004 -15.507,-4.8706 -3.5291,0.46658 -5.1688,3.0073 -5.3115,7.7725 l -16.612,-14.684 1.9962,-3.5455 c 3.2083,0.7869 5.5966,0.46655 7.3077,-0.96796 1.818,-1.539 3.4578,-4.5483 2.8518,-7.7705 -0.64169,-3.3674 -3.1726,-8.3455 -6.6305,-11.604 -3.3152,-3.3674 -9.9456,-6.8762 -13.724,-7.7725 -3.6717,-0.89532 -6.8799,0.82373 -8.6623,2.6502 -1.818,1.7548 -2.3884,4.4766 -1.9963,8.0222 l -8.8405,-9.3473 c 3.2082,-0.89532 5.5966,-1.9349 7.3077,-3.1168 1.7824,-1.1818 3.2439,-2.6502 2.8874,-4.0101 -0.39212,-1.3967 -1.8893,-3.08 -4.8837,-4.6557 1.925,-1.6126 3.03,-3.2958 3.3152,-4.9084 0.35644,-1.718 0.5347,-2.685 -1.5328,-5.1193 -2.1032,-2.5437 -7.8781,-8.2729 -10.872,-10.028 -2.8518,-1.8265 -4.9906,-2.114 -6.4165,-0.86054 1.1407,-2.5786 1.4972,-4.9064 0.67728,-6.6951 -0.78421,-1.8265 -2.9944,-3.4023 -5.0976,-4.4419 -1.9606,-1.1818 -3.8856,-2.7945 -6.8799,-2.2204 -2.9231,0.46658 -6.5948,2.2931 -10.872,5.3372 l -3.3152,-3.7962 6.8799,-5.7669 c 1.9606,-0.75211 3.1013,-1.6474 3.5648,-2.685 0.60602,-1.2187 0.42776,-2.7566 -0.67731,-3.7962 -1.0338,-1.0028 -2.9587,-1.6106 -5.7749,-1.9698 l -2.8518,-2.2563 c 1.1764,-1.0376 1.6398,-1.8613 1.5328,-2.8641 -0.0713,-1.0396 -1.0338,-2.1856 -2.2102,-2.9009 -1.1407,-0.8237 -2.5666,-1.2186 -4.4203,-1.5758 l -11.764,-11.353 c 0.67734,-1.5062 0.92685,-2.7945 0.89117,-4.0121 0.0713,-1.2166 -0.24948,-2.5785 -1.105,-3.1148 -0.78424,-0.68243 -2.2101,-0.89536 -3.9925,-0.64465 l -6.6305,-6.4464 c -0.39212,-1.6822 -1.105,-2.8292 -1.9962,-3.5813 -0.89114,-0.78891 -1.9606,-1.0396 -3.3509,-0.89536 l -19.463,-17.8 c 0.17822,-1.9329 -0.24957,-3.3655 -1.1407,-4.4398 -0.8912,-1.0744 -2.2458,-1.7917 -4.2064,-2.0056 l -83.271,-86.884 c -13.084,-13.323 -24.562,-24.747 -35.008,-35.097 -10.372,-10.278 -19.248,-18.981 -27.056,-26.251 0.49907,-2.3995 0.28618,-3.9395 -0.63965,-4.9064 -0.85652,-0.89532 -2.4597,-1.2176 -4.6708,-0.68045 l -5.3104,-4.8706 c 0.71193,-2.4711 0.49905,-4.0827 -0.64166,-5.1213 -1.0695,-0.96696 -3.0657,-1.3609 -5.9898,-0.89534 -1.8893,-3.1158 -3.3865,-4.7274 -4.8837,-5.1213 -1.3189,-0.46558 -3.1369,1.7907 -3.529,2.9009 -0.39116,1.0386 0.14358,2.2204 1.3189,3.5455 l -7.0938,5.1213 -17.075,-17.155 c -0.0693,-1.6474 -0.28418,-3.0083 -0.63966,-4.226 -0.28612,-1.3251 -0.14356,-2.3637 -1.3556,-3.1158 -1.1764,-0.75208 -2.922,-1.0744 -5.5253,-1.1102 l -19.498,-21.13 c 0.64172,-1.54 0.49908,-2.8651 -0.4277,-4.1185 -0.9268,-1.3609 -3.2429,-2.7934 -4.8837,-3.3306 -1.5338,-0.57302 -2.8874,-0.57302 -4.2064,0 l -52.51,-53.648 c 1.0694,-0.35813 1.8547,-0.82371 2.2102,-1.7907 0.53572,-0.89533 2.2101,-1.1818 0.21488,-3.7604 -1.9982,-2.7218 -7.879,-8.3087 -12.157,-12.499 -4.2063,-4.3692 -8.7682,-10.278 -12.869,-12.893 -3.9568,-2.5428 -7.5216,-3.4023 -10.836,-2.4353 l -14.19,-14.971 c 0.3921,-0.96696 0.14358,-1.8623 -0.46242,-2.686 -0.60702,-0.89533 -1.7121,-2.0772 -3.3172,-2.4353 -1.6031,-0.46557 -3.8489,-0.78789 -6.2026,0 -2.3171,0.64464 -5.8096,1.3609 -7.3067,4.226 -1.319,2.7934 -1.4992,7.0194 -0.67927,12.678 l 92.613,98.164 9.0901,9.7771 c -0.46439,2.1488 0.10596,3.7962 1.3189,5.3362 1.2477,1.4683 3.5291,2.5428 6.4522,3.3664 l 18.609,20.235 c -0.42982,1.5758 -0.1436,3.0083 0.85446,4.4408 1.1041,1.4684 4.1717,3.259 5.3471,4.0111 1.2477,0.60883 1.7814,0.53719 1.7468,-0.21489 l 109.23,116.07 c 0.28416,2.1488 0.78323,4.0111 1.7814,5.5869 0.96346,1.54 1.9259,2.6502 3.9935,3.7604 2.2082,1.0018 5.2392,1.8255 9.0901,2.4711 -0.81992,2.3279 -2.3537,3.258 -4.4559,3.3306 -2.0329,-0.14423 -5.454,-3.2232 -8.1999,-3.5813 -2.7438,-0.42975 -6.2373,-0.0716 -8.4128,1.3599 -2.2081,1.4335 -5.0609,4.7274 -4.4193,7.1269 0.81992,2.3647 5.5967,5.5511 9.0901,6.6623 3.7074,0.85855 8.7336,0.4646 12.192,-0.89532 3.3865,-1.3251 6.168,-3.9036 8.1979,-7.3427 -0.57037,4.9064 0,8.7395 1.3189,11.353 1.4249,2.5438 5.0262,3.653 7.0938,4.4419 2.1745,0.71527 3.9212,0.89532 5.5253,0.2507 l 104.13,110.66 c -1.0694,3.2232 -0.92685,5.5511 0.42773,7.1269 1.4259,1.539 3.9213,2.3279 7.7712,2.2184 -1.0338,4.2628 -1.1764,8.0222 -0.4278,11.569 0.85556,3.5087 3.137,6.6255 5.062,9.3473 1.9606,2.6502 3.743,5.372 6.4521,6.2315 2.8161,0.68045 6.167,0.17905 10.195,-1.7917 l 104.77,111.09 c -0.21399,1.0028 0.17822,1.9697 0.89117,3.0451 0.74854,1.0028 2.1032,2.0424 3.7786,3.1168 6.167,-3.6181 11.158,-7.3427 15.506,-11.569 4.3143,-4.226 7.6642,-8.6658 10.195,-13.465 z"
           inkscape:connector-curvature="0" />
        <path
           id="path3684"
           d="m 540.82,547.82 -33.366,-34.131 c 0.28522,1.3619 0.0356,2.5438 -0.60599,3.6898 -0.64166,1.0743 -1.818,2.0056 -3.3865,2.7925 l 31.833,32.878 c 0.99817,-0.573 1.7824,-1.2903 2.7449,-2.1488 0.96252,-0.93109 1.8893,-1.8613 2.7805,-3.08 z"
           inkscape:connector-curvature="0"
           style="fill:#ffffff" />
        <path
           id="path3686"
           d="m 529.17,558.6 c -9.7674,-10.458 -19.214,-20.378 -28.768,-30.156 -9.5178,-9.8119 -18.608,-19.088 -27.841,-28.257 l -3.3509,2.4363 55.681,59.952 4.2777,-3.9753 z"
           inkscape:connector-curvature="0"
           style="fill:#e6e6e6" />
        <path
           id="path3688"
           d="m 523.68,564.11 -58.141,-61.493 c 2.2458,-3.26 3.4221,-5.4078 3.6716,-6.4464 0.32083,-1.1092 -1.0338,-0.60782 -2.1388,0 -1.105,0.46661 -2.4953,1.541 -4.3134,3.08 l -41.6,-43.656 c -0.89117,1.1092 -1.7111,1.9329 -2.7449,2.7566 -0.99811,0.75211 -1.925,1.3599 -3.0657,1.8265 l 104.66,109.16 c 1.212,-1.72 2.424,-3.4739 3.6717,-5.2287 z"
           inkscape:connector-curvature="0"
           style="fill:#c9c9c9" />
        <g
           id="g3702"
           style="fill:#ffffff">
          <path
             id="path3690"
             d="m 517.26,497.11 c -1.4615,-2.2562 -3.1013,-3.9753 -4.9193,-5.5511 -1.7111,-1.5042 -3.4222,-2.5418 -5.8105,-3.6878 -2.4597,-1.1818 -5.1332,-2.5437 -8.5554,-3.6898 3.9212,2.7586 7.1294,5.1213 9.7674,7.3775 2.6379,2.1488 4.6341,4.8358 6.1313,5.8386 1.5685,0.85855 2.7458,0.85855 3.3865,-0.28751 z"
             inkscape:connector-curvature="0" />
          <path
             id="path3692"
             d="m 512.95,499.54 c 2.1389,0.53622 3.3151,1.2883 3.6717,2.7925 0.42773,1.3967 0.42773,5.5879 -1.5328,5.5162 -1.9963,-0.28751 -6.274,-3.7246 -10.088,-6.4464 -3.743,-2.8292 -9.3752,-7.5914 -11.942,-9.8487 -2.3527,-2.3279 -3.2082,-3.5087 -2.424,-3.6878 0.32083,-1.4694 0.78424,-2.3995 1.5328,-3.08 0.81992,-0.68246 1.7824,-0.93317 3.03,-0.89532 1.7824,2.3278 4.1351,4.6906 7.0582,7.3775 3.0657,2.5766 6.4522,5.3342 10.694,8.2719 z"
             inkscape:connector-curvature="0" />
          <path
             id="path3694"
             d="m 492.77,497.11 10.088,11.067 -0.606,5.5143 c 0.49905,0.71728 0.49905,0.71728 0,0 -0.35648,-0.75208 -1.1764,-1.9688 -2.7449,-4.6189 -1.6398,-2.8313 -3.7073,-6.7697 -6.7373,-11.963 z"
             inkscape:connector-curvature="0" />
          <path
             id="path3696"
             d="m 505.32,513.08 c 0.42773,0.78693 0.57034,1.5042 0.28513,2.1488 -0.21387,0.53619 -0.81982,1.1819 -1.818,1.5389 -0.60599,-1.0743 -0.85553,-1.8961 -0.60599,-2.4691 0.24954,-0.573 0.96246,-1.1112 2.1388,-1.2186 z"
             inkscape:connector-curvature="0" />
          <path
             id="path3698"
             d="m 493.38,500.47 3.9925,7.9854 -5.2045,-3.9753 z"
             inkscape:connector-curvature="0" />
          <path
             id="path3700"
             d="m 486.35,490.62 -15.008,-13.502 c -0.57037,1.1112 -1.2833,1.3619 -2.1388,0.6098 -0.78424,-0.75409 -1.7111,-2.3995 -2.7805,-4.9432 v 4.3324 l 19.927,19.662 v -6.1589 z"
             inkscape:connector-curvature="0" />
        </g>
        <path
           id="path3704"
           d="m 476.84,493.7 21.745,22.777 c 3.2083,5.0129 3.5648,6.5886 1.212,4.5831 -2.3527,-2.0403 -11.443,-12.678 -15.293,-16.582 -3.7787,-4.0469 -5.9888,-6.2663 -7.0226,-7.09 -4.5272,-2.6502 -4.2777,-1.3619 0.60602,4.0101 4.9907,5.3352 14.58,14.612 29.053,27.969 -0.0357,2.1488 -3.137,0.35913 -9.1614,-5.2288 -6.0601,-5.7301 -14.901,-15.112 -26.949,-28.578 -0.5704,-3.834 -0.32083,-5.8386 0.60599,-6.1609 0.96246,-0.24972 2.7448,1.0038 5.2045,4.2996 z"
           inkscape:connector-curvature="0"
           style="fill:#e6e6e6" />
        <g
           id="g3712"
           style="fill:#ffffff">
          <path
             id="path3706"
             d="m 480.51,465.12 c -3.9569,-0.82172 -7.6286,-2.8292 -11.3,-6.1589 -3.6004,-3.4022 -7.0225,-7.8789 -10.409,-13.824 -2.3884,1.3967 -3.7073,3.1884 -3.6717,5.2288 -0.0357,2.0075 1.2833,4.407 3.6717,7.0572 -4.0638,0.0348 -5.7036,1.0744 -5.2045,3.4023 0.57034,2.291 3.4222,5.6207 8.5554,10.135 -0.17822,-1.3619 -0.5347,-2.6502 -1.212,-4.0101 -0.57034,-1.5062 -2.6735,-3.26 -2.7448,-4.2976 -0.0713,-1.0744 0.64163,-1.6842 2.1388,-1.8265 3.743,3.1864 6.5235,5.4426 8.8762,7.0552 2.3528,1.5042 3.0657,2.5418 4.8837,2.1488 1.8893,-0.54019 4.0281,-2.0443 6.4165,-4.9104 z"
             inkscape:connector-curvature="0" />
          <path
             id="path3708"
             d="m 480.22,460.18 c 0.28516,-2.687 -0.89117,-5.0496 -3.3865,-7.3775 -2.531,-2.3279 -6.274,-4.4767 -11.621,-6.4464 0.71295,1.5758 1.8893,3.1168 3.6717,4.6209 1.8893,1.3599 5.2045,2.7945 7.0582,4.2976 1.925,1.5758 3.3508,3.079 4.2777,4.9054 z"
             inkscape:connector-curvature="0" />
          <path
             id="path3710"
             d="m 450.85,454.67 -9.803,-10.458 c 4.4203,-1.5758 7.379,-3.0074 8.8762,-4.2976 1.6041,-1.3599 2.0675,-3.832 0.28516,-3.6878 -1.7824,0.0716 -5.454,1.5042 -11.015,4.2976 5.2402,-3.1884 7.6998,-5.0865 7.6642,-5.8386 -0.10693,-0.75204 -5.5966,0.68048 -7.9494,1.541 -2.1388,0.7869 -3.9212,1.7201 -5.2045,3.08 l 16.505,19.662 c 0.2139,-1.4325 0.42776,-2.864 0.64166,-4.2986 z"
             inkscape:connector-curvature="0" />
        </g>
        <path
           id="path3714"
           d="m 466.75,483.1 -31.512,-32.876 c -0.64166,-4.1195 -1.7111,-6.3748 -3.0657,-6.7697 -1.3545,-0.42975 -3.1369,1.0028 -5.2044,4.2976 -2.2815,-1.1818 -0.28522,1.5042 6.1313,8.5962 6.4878,7.0184 17.004,17.907 32.118,33.198 2.1745,0.78888 0.74863,-1.4316 -4.2777,-7.0552 -5.0619,-5.6585 -13.439,-14.325 -25.702,-26.43 -0.57034,-2.1488 0.96246,-1.539 4.5985,1.8265 3.743,3.4022 12.94,13.789 17.432,18.157 4.5638,4.1544 7.6285,6.5539 9.4822,7.0553 z"
           inkscape:connector-curvature="0"
           style="fill:#e6e6e6" />
        <g
           id="g3726"
           style="fill:#ffffff">
          <path
             id="path3716"
             d="m 429.42,415.17 c 2.9944,-1.8633 5.8461,-2.3278 8.5553,-1.541 2.8161,0.71728 5.9175,4.0121 7.9494,6.4464 2.2101,2.4343 4.5985,6.1589 4.2777,7.9854 -0.35648,1.72 -2.4953,2.5437 -6.4165,2.4711 -4.7768,-5.1203 -9.5535,-10.24 -14.366,-15.362 z"
             inkscape:connector-curvature="0" />
          <path
             id="path3718"
             d="m 426.96,415.77 14.081,14.755 c -1.3546,2.3278 -3.137,2.9008 -5.2045,1.8633 -2.0676,-1.1829 -4.8837,-5.9828 -7.3434,-8.3107 -2.424,-2.291 -4.6698,-4.1892 -7.0225,-5.5511 1.818,-0.89331 3.636,-1.8265 5.4898,-2.7566 z"
             inkscape:connector-curvature="0" />
          <path
             id="path3720"
             d="m 433.38,434.22 c -8.484,-8.1296 -13.796,-13.646 -16.22,-17.226 -2.317,-3.4391 0.17822,-3.0073 2.1388,-3.6898 2.1032,-0.75208 8.092,0.46655 10.124,-0.89334 2.1388,-1.5758 3.1726,-6.2335 2.1388,-8.0222 -1.0694,-1.8981 -5.8818,-2.8661 -8.2702,-3.0451 -2.2101,-0.25067 -3.03,0.21591 -5.2045,1.541 -2.1032,1.2535 -4.7055,3.2938 -7.6642,6.1241 l -3.3509,-3.082 c -1.2833,0.0717 -2.1032,0.53821 -2.4597,1.541 -0.39212,0.93115 -1.5684,1.541 0.32086,4.2976 2.1745,2.685 7.6642,7.09 11.942,11.71 4.2777,4.5115 8.6623,9.3473 13.439,15.043 0.99811,-1.4335 2.0319,-2.8661 3.0656,-4.2976 z"
             inkscape:connector-curvature="0" />
          <path
             id="path3722"
             d="m 406.15,431.14 c 3.5647,1.4674 6.1669,3.832 7.9493,7.0901 1.818,3.2232 2.7449,7.2711 2.7805,12.284 -0.64166,1.541 -1.3902,1.541 -1.8537,0 -0.39209,-1.6474 0.2139,-6.517 -1.212,-9.204 -1.4616,-2.8641 -6.3096,-4.9781 -7.6642,-6.7677 -1.2477,-1.6843 -1.2477,-2.8661 0,-3.4023 z"
             inkscape:connector-curvature="0" />
          <path
             id="path3724"
             d="m 401.55,426.84 c -1.1051,-1.4693 -5.8462,-4.9781 -7.3434,-5.8386 -1.3903,-0.85852 -2.2458,-0.17908 -1.212,1.2186 1.2833,1.3599 6.4522,5.8734 7.9494,6.7698 1.4962,0.7511 1.7457,-0.93411 0.60599,-2.1498 z"
             inkscape:connector-curvature="0" />
        </g>
        <g
           id="g3732"
           style="fill:#c9c9c9">
          <path
             id="path3728"
             d="m 399.73,433.93 c -2.8518,1.2187 -4.3489,3.0073 -4.8837,5.5163 -0.3208,2.5069 0.85556,6.0872 2.1389,9.2388 1.2833,2.9377 3.3864,7.0553 5.2045,8.9185 1.9606,1.7549 3.6717,2.4711 5.8105,2.1488 2.2102,-0.39392 4.4203,-1.8265 7.0226,-4.2976 -1.1051,-0.64462 -1.9607,-1.3251 -2.424,-2.1856 -0.46338,-0.93115 0.0713,-1.5757 -0.32083,-3.0431 -0.28516,-1.5758 -0.42776,-4.5483 -1.5328,-6.1609 -1.0695,-1.6822 -2.9231,-2.0403 -4.8837,-3.6877 -1.8537,-1.7927 -3.8499,-3.7972 -6.1314,-6.4474 z"
             inkscape:connector-curvature="0" />
          <path
             id="path3730"
             d="m 398.2,432.07 c -2.6379,0.71524 -4.8837,1.0744 -6.7374,0.93115 -1.7824,-0.25073 -3.6717,-0.68048 -4.2776,-1.8613 -0.57037,-1.1828 -0.2139,-2.9725 0.92682,-5.2307 l -60.921,-65.788 2.4596,-1.8265 11.621,12.892 3.3865,-2.1488 c 0,3.5455 1.1764,6.1609 3.6717,7.9874 2.5666,1.7548 6.2027,2.685 11.3,2.7924 l -3.0656,5.5163 12.548,13.86 2.7805,-2.4711 c -0.17822,3.7962 0.4278,6.6623 1.818,8.5962 1.4616,1.8613 4.6698,1.8613 6.7374,2.7566 2.1744,0.8237 4.1707,1.5042 6.1314,2.1856 -2.4953,1.0028 -3.9212,2.1836 -3.9925,3.6878 -0.0357,1.4694 0.81986,2.114 3.3865,5.2288 2.6378,2.9715 6.667,7.2691 12.227,12.893 z"
             inkscape:connector-curvature="0" />
        </g>
        <g
           id="g3740"
           style="fill:#e6e6e6">
          <path
             id="path3734"
             d="m 464.93,491.09 -41.03,-41.794 -1.5328,4.2956 40.388,42.116 c 1.1051,-0.10644 1.7824,-0.4646 2.1745,-1.2166 0.39212,-0.8237 0.39212,-1.8623 3e-5,-3.4013 z"
             inkscape:connector-curvature="0" />
          <path
             id="path3736"
             d="m 427.29,440.23 -8.8762,-9.5263 -3.0657,4.5851 c 1.6041,1.1441 2.7805,3.0432 3.6717,5.5511 0.8912,2.4692 1.3546,5.6933 1.5328,9.5244 2.2458,-3.3655 4.4916,-6.732 6.7373,-10.134 z"
             inkscape:connector-curvature="0" />
          <path
             id="path3738"
             d="m 413.49,426.7 c -2.2814,-3.258 -4.4916,-6.2315 -7.0225,-8.9185 -2.4953,-2.7924 -4.9193,-5.1572 -7.6642,-7.3776 l -3.3508,5.8386 c 2.3884,0.93115 4.2777,2.2204 5.8106,4.0101 1.5684,1.7917 2.6379,3.7962 3.3508,6.4464 2.2458,1.1818 3.9568,2.0772 5.5253,3.08 1.5684,0.89532 2.7448,1.7201 3.6717,2.4711 -0.10696,-1.8255 -0.21387,-3.6888 -0.32086,-5.5501 z"
             inkscape:connector-curvature="0" />
        </g>
        <path
           id="path3742"
           d="m 393.31,407.04 c 1.4972,-1.0396 2.6736,-2.687 3.6717,-4.9432 0.99811,-2.4711 2.5309,-6.0872 2.1388,-8.9165 -0.28513,-2.9009 -1.8892,-6.4842 -3.9925,-7.9874 -1.9963,-1.5042 -4.9194,-1.539 -7.9494,-1.2167 -2.9231,0.14227 -7.379,1.0028 -9.803,2.4343 -2.3171,1.3967 -3.743,3.2958 -4.2777,5.8366 l 2.4597,-0.2855 c -1.0338,0.68045 -1.0338,0.68045 0,0 1.105,-0.8237 4.0281,-3.5456 6.4165,-4.2976 2.5666,-0.78693 6.2383,-1.0376 8.2702,-0.32233 2.1032,0.60983 3.2439,2.687 3.9568,4.2976 0.78427,1.5042 1.0338,3.1516 0.32083,5.2287 -0.71295,2.0056 -2.2458,4.3702 -4.5985,7.092 1.105,1.0038 2.2458,2.0414 3.3865,3.08 z"
           inkscape:connector-curvature="0"
           style="fill:#ffffff" />
        <path
           id="path3744"
           d="m 376.17,394.72 c -0.28522,3.258 0.17822,5.6227 1.5328,7.092 1.3546,1.3967 3.4934,1.8981 6.4155,1.5042 1.7467,1.1092 2.4597,1.9329 2.1388,2.4711 -0.3208,0.50137 -1.9606,1.0744 -3.9568,0.60782 -1.8537,-0.71726 -6.274,-2.0424 -7.3434,-3.9753 -0.96149,-1.9329 -0.60498,-4.5483 1.213,-7.6999 z"
           inkscape:connector-curvature="0"
           style="fill:#e6e6e6" />
        <g
           id="g3750"
           style="fill:#ffffff">
          <path
             id="path3746"
             d="m 387.18,401.48 c 1.3546,-0.10644 3.743,-2.2204 4.2777,-4.0121 0.60602,-1.8961 0.21387,-6.0525 -0.60599,-7.0552 -0.67734,-1.0028 -2.9587,0 -3.6717,0.93314 -0.57034,0.82172 0.28522,2.7924 -0.3208,3.9733 -0.57034,1.0048 -3.3865,1.7917 -3.3509,2.7944 0.107,1.0396 2.424,3.4022 3.6717,3.3664 z"
             inkscape:connector-curvature="0" />
          <path
             id="path3748"
             d="m 365.65,377.2 c 1.4615,-1.0028 2.6022,-2.5437 3.5648,-4.7642 0.96243,-2.3627 2.424,-5.8714 2.0675,-8.5942 -0.35648,-2.7944 -1.7824,-6.2315 -3.8499,-7.6999 -1.8894,-1.4316 -4.7768,-1.5042 -7.6999,-1.1818 -2.8874,0.17905 -6.9869,0.96594 -9.4109,2.3627 -2.2101,1.3251 -3.636,3.1516 -4.1351,5.6227 l 2.3528,-0.2855 c -0.99814,0.68045 -0.99814,0.68045 0,0 1.1407,-0.8237 3.8499,-3.3675 6.2026,-4.1563 2.4953,-0.82373 5.9174,-0.96597 7.9494,-0.28552 2.0675,0.60785 3.1726,2.5438 3.8499,4.1544 0.81988,1.3967 0.96246,3.1168 0.28519,5.0149 -0.71295,1.933 -2.1388,4.2608 -4.4203,6.8394 1.0694,0.96899 2.1388,1.9707 3.2439,2.9735 z"
             inkscape:connector-curvature="0" />
        </g>
        <path
           id="path3752"
           d="m 349.11,365.35 c -0.28513,3.1516 0.21393,5.372 1.4972,6.8045 1.2833,1.3251 3.3509,1.8613 6.2026,1.4694 1.7111,1.1092 2.3528,1.8613 2.0676,2.3995 -0.28516,0.42975 -1.8893,1.0744 -3.8499,0.573 -1.8536,-0.64465 -5.9531,-1.9698 -7.0938,-3.834 -0.96249,-1.8981 -0.57034,-4.3672 1.1763,-7.4124 z"
           inkscape:connector-curvature="0"
           style="fill:#e6e6e6" />
        <g
           id="g3758"
           style="fill:#ffffff">
          <path
             id="path3754"
             d="m 359.77,371.87 c 1.3546,-0.18106 3.5647,-2.114 4.1351,-3.8688 0.57037,-1.8981 0.14261,-5.7302 -0.60602,-6.8045 -0.67728,-0.96796 -2.8161,-0.0368 -3.5291,0.85852 -0.57037,0.78888 0.28519,2.7218 -0.32083,3.8689 -0.57037,0.96594 -3.2083,1.72 -3.2439,2.685 0.0713,1.0754 2.3537,3.2242 3.5647,3.261 z"
             inkscape:connector-curvature="0" />
          <path
             id="path3756"
             d="m 337.81,351.38 c 1.5329,-1.0028 2.531,-2.5418 3.5291,-4.7622 0.96249,-2.3647 2.424,-5.8734 2.0676,-8.5962 -0.28522,-2.7924 -1.7824,-6.2315 -3.8143,-7.6999 -1.9606,-1.4315 -4.6698,-1.5042 -7.6998,-1.1818 -2.8518,0.17905 -7.0938,0.96796 -9.4465,2.3647 -2.2101,1.3251 -3.636,3.1516 -4.1351,5.6207 l 2.3884,-0.2855 c -0.99817,0.68045 -0.99817,0.68045 0,0 1.1407,-0.8237 3.8499,-3.3675 6.2026,-4.1543 2.4953,-0.82373 5.9175,-0.96796 7.9494,-0.28751 2.0675,0.60983 3.1726,2.5437 3.8499,4.1563 0.81986,1.3947 0.96246,3.1148 0.28513,5.0128 -0.71292,1.933 -2.1388,4.2608 -4.4203,6.8414 1.0695,0.96698 2.1388,1.9688 3.2439,2.9715 z"
             inkscape:connector-curvature="0" />
        </g>
        <path
           id="path3760"
           d="m 321.27,339.49 c -0.28522,3.1167 0.21387,5.4446 1.4971,6.8413 1.2833,1.3251 3.3509,1.8613 6.2027,1.4674 1.6754,1.1112 2.3527,1.8633 2.0319,2.3995 -0.28522,0.42978 -1.925,1.0744 -3.8143,0.573 -1.8536,-0.64465 -5.9531,-1.9697 -7.0938,-3.832 -0.96252,-1.8981 -0.57037,-4.3325 1.1764,-7.4492 z"
           inkscape:connector-curvature="0"
           style="fill:#e6e6e6" />
        <g
           id="g3766"
           style="fill:#ffffff">
          <path
             id="path3762"
             d="m 331.89,346.05 c 1.3546,-0.17905 3.5648,-2.112 4.1351,-3.8688 0.64169,-1.9688 0.17825,-5.765 -0.57034,-6.8394 -0.64163,-1.0028 -2.8874,0.0348 -3.5648,0.89532 -0.60602,0.78693 0.35651,2.7218 -0.28516,3.8669 -0.57037,0.96793 -3.2082,1.72 -3.2439,2.687 0.14258,1.0754 2.2824,3.2242 3.529,3.259 z"
             inkscape:connector-curvature="0" />
          <path
             id="path3764"
             d="m 314.89,326.17 c 1.3902,-0.96597 2.4597,-2.3627 3.3509,-4.4767 0.92679,-2.1836 2.2101,-5.5142 1.9249,-8.058 -0.28516,-2.6134 -1.6754,-5.8734 -3.6004,-7.2711 -1.8536,-1.3947 -4.3489,-1.3947 -7.2007,-1.1092 -2.7092,0.17908 -6.6304,0.93115 -8.8762,2.2563 -2.1388,1.2535 -3.3865,3.0093 -3.8855,5.2656 l 2.2101,-0.2507 c -0.92685,0.60785 -0.92685,0.60785 0,0 1.0338,-0.78888 3.5648,-3.1516 5.8106,-3.9037 2.2458,-0.7521 5.7036,-0.89532 7.486,-0.28751 1.925,0.53821 2.9943,2.4363 3.636,3.9037 0.78427,1.3967 0.81988,2.7944 0.24954,4.7274 -0.60599,1.8981 -2.0319,3.9405 -4.1351,6.4116 0.99814,0.93115 1.9962,1.8623 3.03,2.7925 z"
             inkscape:connector-curvature="0" />
        </g>
        <path
           id="path3768"
           d="m 299.38,315.03 c -0.21387,2.9357 0.1069,5.1213 1.3546,6.4096 1.2833,1.2535 3.1014,1.7548 5.8462,1.3619 1.5685,1.0028 2.2101,1.7548 1.925,2.2563 -0.17828,0.35712 -1.8894,1.0376 -3.6004,0.53616 -1.7111,-0.573 -5.6679,-1.8265 -6.666,-3.6161 -0.92685,-1.7539 -0.49905,-4.1185 1.1407,-6.9478 z"
           inkscape:connector-curvature="0"
           style="fill:#e6e6e6" />
        <path
           id="path3770"
           d="m 309.36,321.16 c 1.3546,-0.21591 3.2439,-1.9349 3.8855,-3.6182 0.57037,-1.72 0.107,-5.5142 -0.57031,-6.4096 -0.64169,-1.0396 -2.5666,0.10648 -3.3152,0.8237 -0.46341,0.75211 0.21387,2.507 -0.28519,3.6162 -0.53473,1.0396 -3.03,1.5062 -3.0656,2.5079 0.10693,0.89438 2.1388,3.1158 3.3508,3.08 z"
           inkscape:connector-curvature="0"
           style="fill:#ffffff" />
        <path
           id="path3772"
           d="m 525.1,575.75 c -0.64172,-0.39392 -0.35651,-1.3599 0.46344,-3.0451 0.9624,-1.8265 2.8874,-4.7274 4.955,-7.1617 2.1744,-2.4363 4.5628,-4.8358 7.5572,-7.1986 l -3.4578,-2.5786 c -3.2795,2.9009 -5.7391,5.4795 -7.7711,7.5914 -1.8537,2.114 -2.9587,3.5834 -3.8856,5.2308 -0.89117,1.6454 -2.0676,3.2938 -1.7467,4.5463 0.39209,1.1112 1.6397,2.114 3.8856,2.6154 z"
           inkscape:connector-curvature="0"
           style="fill:#c9c9c9" />
        <path
           id="path3774"
           d="m 536.79,554.87 c 1.6755,-1.1818 3.3152,-2.1488 4.5273,-3.0451 1.2476,-1.0028 2.1388,-2.3627 3.2438,-2.1489 1.2833,0.21588 2.4597,1.3251 3.9212,3.4739 -2.3884,0.89532 -4.1708,1.6474 -5.6323,2.3995 -1.3903,0.68048 -2.2814,1.3251 -2.8162,1.9349 -1.0704,-0.85956 -2.1398,-1.7191 -3.244,-2.6144 z"
           inkscape:connector-curvature="0"
           style="fill:#e6e6e6" />
        <path
           id="path3776"
           d="m 414.63,393.14 c 2.6022,-1.3251 3.7073,-2.3627 3.4578,-3.258 -0.24954,-0.96793 -1.8537,-1.6474 -4.955,-2.1856 l -6.0601,-4.9781 c 1.4616,-1.144 1.8893,-2.112 1.2833,-3.0431 -0.60602,-1.0028 -2.2101,-1.8265 -4.955,-2.6154 l -13.617,-13.681 c 1.4259,-2.4344 1.8537,-4.0827 1.2833,-4.799 -0.53467,-0.8237 -1.9962,-0.75208 -4.5272,0.21585 l -7.5929,-7.8073 c 0.78424,-1.5042 0.85553,-2.4711 0.2139,-3.0451 -0.64163,-0.574 -1.8894,-0.64462 -3.8856,-0.21585 l -20.319,-18.659 c 1.212,-1.3599 1.4972,-2.4343 0.8555,-3.3654 -0.64166,-1.0028 -3.3865,-1.6842 -4.5272,-2.1856 -0.99814,-0.5014 -1.7824,-0.7153 -1.9606,-0.64267 l -27.876,-28.902 c -3.0657,-1.6126 -3.9925,-1.2535 -2.3884,1.0744 1.6041,2.3279 5.4541,6.5538 11.692,12.822 -4.848,2.4343 -7.1652,4.226 -7.3434,5.2288 0.0713,0.96594 5.7036,0.10644 6.7017,0.85852 0.96249,0.64465 -2.317,3.5455 -1.3189,3.4739 1.0694,-0.14426 3.6004,-1.4694 7.5929,-4.1195 l 11.657,11.71 c -1.7824,1.1828 -2.9587,2.2204 -3.6716,3.26 -0.64169,0.96594 -0.46344,2.1836 -0.4278,2.8292 0.17825,0.53619 -0.10696,0.96793 1.0694,0.89532 1.1764,-0.14426 3.2439,-0.60983 6.06,-1.541 l 20.961,19.125 -4.3133,4.3324 c 0.89117,0.17908 1.4972,0.68045 1.9606,1.1092 0.46341,0.43176 0.7486,1.0048 0.85553,1.72 l 5.1689,-3.4739 8.2345,8.4888 c -1.818,2.4711 -3.1369,4.5831 -4.0995,6.4822 -0.89117,1.7917 -1.1407,3.1864 -1.3189,4.5831 -0.0713,1.3967 0.2139,2.8292 0.85553,3.4739 0.92682,0.35715 2.6023,-0.89532 3.4934,-0.42975 0.89117,0.50137 0.67728,3.3675 1.2833,3.4739 0.71298,0.0348 2.6736,-1.9698 2.6023,-3.258 -0.0356,-1.3967 -3.0657,-2.7944 -3.0301,-4.5851 0.107,-1.8265 1.2121,-3.8668 3.4578,-6.2664 l 15.114,13.895 -4.955,4.7642 c 0.8912,0.4646 1.4972,1.0028 1.9606,1.7548 0.46341,0.68045 0.7486,1.539 0.8555,2.5786 l 4.3134,-4.3324 c 2.8518,2.3627 4.7411,4.226 6.0601,5.8734 1.3189,1.6454 0.85553,2.9705 1.4972,3.6878 0.71295,0.50238 1.5329,0.39496 2.6023,-0.32132 z"
           inkscape:connector-curvature="0"
           style="fill:#ffffff" />
        <g
           id="g3788"
           style="fill:#e6e6e6">
          <path
             id="path3778"
             d="m 360.16,344.58 c -2.424,2.8661 -4.349,4.5135 -6.0601,4.799 -1.6397,0.25067 -2.8874,-0.71527 -3.8855,-3.0432 l 6.0244,-6.519 c 1.2833,1.5768 2.6023,3.1526 3.9213,4.7632 z"
             inkscape:connector-curvature="0" />
          <path
             id="path3780"
             d="m 373.99,366.53 c -0.0713,2.3647 -0.60599,4.7273 -1.7467,6.9478 -1.0694,2.2204 -2.6022,4.4419 -4.7411,6.519 l 5.8462,4.7622 9.7317,-3.0451 c 0.0713,-1.7548 -0.24951,-2.8292 -1.1051,-3.2232 -0.85553,-0.50137 -2.8874,2.2931 -3.8856,0.64462 -0.78424,-1.7896 -0.81986,-8.5236 -1.4971,-10.673 -0.67731,-2.111 -1.4972,-2.7556 -2.6023,-1.9319 z"
             inkscape:connector-curvature="0" />
          <path
             id="path3782"
             d="m 374.85,356.97 4.5272,4.799 -1.2833,4.7622 c -0.49902,-1.8265 -1.0694,-3.3655 -1.7111,-4.7622 -0.6416,-1.4694 -1.2476,-2.5079 -1.9606,-3.5107 0.14261,-0.42871 0.28519,-0.85849 0.42776,-1.2883 z"
             inkscape:connector-curvature="0" />
          <path
             id="path3784"
             d="m 390.43,372.19 6.9156,6.7349 -2.6022,3.4739 c -1.4972,-0.89532 -2.9587,-1.3619 -4.5272,-1.541 -1.5685,-0.1791 -2.9587,0.0349 -4.5628,0.64465 2.1744,-1.1112 3.4934,-2.3647 4.349,-3.9037 0.81986,-1.6116 0.96249,-3.3664 0.42773,-5.4088 z"
             inkscape:connector-curvature="0" />
          <path
             id="path3786"
             d="m 404.26,387.59 c 3.03,1.3619 4.5629,2.7566 4.7411,4.5831 0.17825,1.7568 -3.1726,3.9753 -3.8855,5.8386 -0.64169,1.7897 -0.71298,3.1864 -0.21393,4.5831 l -3.4578,5.4078 -2.6023,-3.0432 c 2.0675,-3.0093 3.4222,-5.4794 3.9212,-7.8073 0.49905,-2.3995 -0.64166,-4.407 -0.67731,-5.8734 0.14258,-1.5042 0.53473,-2.4363 1.3189,-2.7945 l 0.8556,-0.8943 z"
             inkscape:connector-curvature="0" />
        </g>
        <g
           id="g3796"
           style="fill:#ffffff">
          <path
             id="path3790"
             d="m 370.96,389.77 -9.9456,-9.3473 -1.2833,4.799 10.16,10.851 1.0694,-6.3031 z"
             inkscape:connector-curvature="0" />
          <path
             id="path3792"
             d="m 336.81,354.78 5.3828,6.519 -0.4278,5.0149 -7.7711,-8.7026 2.8161,-2.8312 z"
             inkscape:connector-curvature="0" />
          <path
             id="path3794"
             d="m 311.29,329.61 4.7411,5.4078 0.4278,1.7549 -6.0244,-3.9037 0.8556,-3.259 z"
             inkscape:connector-curvature="0" />
        </g>
        <path
           id="path3798"
           d="m 334.85,315.93 7.985,8.6658 -4.3133,2.8293 c -2.2814,-0.32031 -4.349,-0.46454 -6.0601,-0.42972 -1.7467,0.0368 -3.137,0.25067 -4.3133,0.64462 l -5.2045,-5.4078 c 2.8161,-0.14423 4.955,-0.21585 6.274,-0.21585 1.3546,-0.17908 0.99811,-0.35715 1.9606,0 1.0695,0.39395 2.4597,1.1818 4.3134,2.3647 1.7824,0.14227 2.317,-0.21585 1.7467,-1.0744 -0.53467,-0.93115 -2.317,-2.3279 -5.2045,-4.3344 0.92679,-1.0028 1.8536,-2.0056 2.8161,-3.0422 z"
           inkscape:connector-curvature="0"
           style="fill:#e6e6e6" />
        <path
           id="path3800"
           d="m 327.94,356.25 c -1.7824,-1.9698 -3.3865,-3.5087 -5.2045,-4.7622 -1.7467,-1.2535 -3.9212,-1.2903 -5.1689,-2.6154 -1.1051,-1.3967 -0.10696,-3.2232 -1.9606,-5.6227 -1.7468,-2.5418 -4.2777,-3.6878 -8.8406,-8.7027 -4.4916,-5.0496 -10.552,-11.924 -18.18,-21.058 0,0.35913 -0.49908,0.64465 -1.4972,0.86054 -0.99811,0.14224 -2.3527,0.2139 -4.349,0.2139 l 42.171,43.873 c 0.99814,-0.71823 1.9962,-1.4345 3.03,-2.1866 z"
           inkscape:connector-curvature="0"
           style="fill:#c9c9c9" />
        <path
           id="path3802"
           d="m 287.87,311.16 c 1.3546,-0.89532 2.4597,-2.3279 3.3152,-4.4399 0.99811,-2.114 2.2458,-5.5879 1.9606,-8.0948 -0.28516,-2.5786 -1.6754,-5.9082 -3.6004,-7.2333 -1.818,-1.3967 -4.4203,-1.3967 -7.2364,-1.1102 -2.7092,0.14325 -6.6304,0.93216 -8.8762,2.2194 -2.1022,1.2535 -3.3865,2.9725 -3.8509,5.3004 l 2.2111,-0.2845 c -0.92682,0.60785 -0.92682,0.60785 0,0 1.0348,-0.78888 3.5647,-3.1516 5.8106,-3.9037 2.2459,-0.7521 5.7036,-0.89532 7.4859,-0.28751 1.925,0.53821 2.9944,2.4363 3.6004,3.9037 0.7486,1.3967 0.89117,2.7944 0.28516,4.7274 -0.60599,1.8981 -1.9962,3.9405 -4.1707,6.4116 0.99811,0.93018 2.0319,1.8613 3.0656,2.7915 z"
           inkscape:connector-curvature="0"
           style="fill:#ffffff" />
        <path
           id="path3804"
           d="m 272.33,300.03 c -0.24948,2.9357 0.21289,5.1213 1.3883,6.4096 1.2842,1.2903 3.1023,1.7548 5.8471,1.3967 1.5684,1.0396 2.2101,1.6822 1.925,2.2204 -0.17822,0.3223 -1.8893,1.1092 -3.6004,0.57303 -1.7111,-0.64465 -5.6689,-1.8633 -6.666,-3.653 -0.89215,-1.8623 -0.57034,-4.0459 1.106,-6.9468 z"
           inkscape:connector-curvature="0"
           style="fill:#e6e6e6" />
        <g
           id="g3810"
           style="fill:#ffffff">
          <path
             id="path3806"
             d="m 282.31,306.15 c 1.3546,-0.21588 3.2439,-1.9349 3.8856,-3.6181 0.64163,-1.7201 0.14255,-5.5143 -0.53473,-6.4096 -0.71295,-1.0396 -2.6023,0.10644 -3.3509,0.8237 -0.49905,0.75208 0.28522,2.4711 -0.24951,3.653 -0.5347,1.0376 -3.03,1.5042 -3.0657,2.5069 0.17822,0.93014 2.0675,3.0441 3.3152,3.0441 z"
             inkscape:connector-curvature="0" />
          <path
             id="path3808"
             d="m 269.44,286.63 c 1.319,-0.85956 2.3884,-2.2921 3.2083,-4.2976 0.99811,-2.113 2.0675,-5.3004 1.8527,-7.7715 -0.21484,-2.5428 -1.6398,-5.5511 -3.4578,-6.9478 -1.7467,-1.3967 -4.241,-1.2893 -6.9512,-1.0744 -2.5666,0.14328 -6.4165,0.85953 -8.5198,2.1488 -2.0329,1.1819 -3.2805,2.8292 -3.744,5.0855 l 2.1389,-0.2865 c -0.89117,0.60883 -0.89117,0.60883 0,0 1.0348,-0.68045 3.4924,-3.08 5.5966,-3.7246 2.1388,-0.64465 5.454,-0.96698 7.1998,-0.28653 1.818,0.64465 2.9241,2.2205 3.4578,3.7604 0.74857,1.2893 0.89117,2.7576 0.28613,4.5483 -0.607,1.7191 -1.8893,3.8679 -3.9935,6.1599 0.96542,0.89532 1.9279,1.7906 2.926,2.686 z"
             inkscape:connector-curvature="0" />
        </g>
        <path
           id="path3812"
           d="m 254.5,275.92 c -0.24951,2.7935 0.14162,4.9423 1.3189,6.1599 1.1764,1.1818 2.9934,1.7191 5.5947,1.3251 1.4992,0.96695 2.1755,1.6832 1.8893,2.1488 -0.28424,0.42978 -1.7101,0.93115 -3.4578,0.5372 -1.5685,-0.5372 -5.4887,-1.7906 -6.4155,-3.4739 -0.85554,-1.6474 -0.49805,-4.0111 1.0704,-6.6971 z"
           inkscape:connector-curvature="0"
           style="fill:#e6e6e6" />
        <g
           id="g3818"
           style="fill:#ffffff">
          <path
             id="path3814"
             d="m 264.09,281.8 c 1.2823,-0.14325 3.1716,-1.8981 3.742,-3.4739 0.607,-1.7548 0.10599,-5.1929 -0.53372,-6.1599 -0.57034,-0.89532 -2.6032,-0.0358 -3.2082,0.7879 -0.49905,0.71625 0.28421,2.4353 -0.24954,3.5097 -0.53571,1.0028 -2.8874,1.4325 -2.9241,2.3995 0.10791,0.89532 2.0319,2.9725 3.1736,2.9367 z"
             inkscape:connector-curvature="0" />
          <path
             id="path3816"
             d="m 254.72,266 c 1.3189,-0.85953 2.3884,-2.292 3.2083,-4.2976 0.99811,-2.113 2.0675,-5.3004 1.8546,-7.7715 -0.3208,-2.5428 -1.6051,-5.5511 -3.4578,-6.9478 -1.818,-1.3967 -4.1717,-1.2893 -6.9156,-1.0744 -2.5666,0.14325 -6.4165,0.85953 -8.5197,2.1488 -2.0329,1.1818 -3.2805,2.8292 -3.744,5.0855 l 2.1388,-0.2865 c -0.89119,0.60883 -0.89119,0.60883 0,0 1.0348,-0.68045 3.4925,-3.08 5.5966,-3.7246 2.1389,-0.64464 5.4541,-0.96695 7.1998,-0.28651 1.818,0.64464 2.9241,2.2204 3.4578,3.7604 0.67732,1.2893 0.89119,2.7576 0.24954,4.5483 -0.60503,1.7191 -1.8893,3.8679 -3.9915,6.1599 0.96146,0.89536 1.9249,1.7907 2.9231,2.686 z"
             inkscape:connector-curvature="0" />
        </g>
        <path
           id="path3820"
           d="m 239.82,255.29 c -0.24954,2.7934 0.14159,4.9422 1.3189,6.1599 1.1764,1.1818 2.9934,1.719 5.5946,1.3251 1.5339,0.96695 2.1042,1.6832 1.8547,2.1488 -0.28619,0.35812 -1.7121,1.0386 -3.4578,0.53723 -1.6398,-0.60883 -5.4194,-1.8265 -6.3799,-3.5097 -0.85657,-1.719 -0.49908,-3.9394 1.0694,-6.6613 z"
           inkscape:connector-curvature="0"
           style="fill:#e6e6e6" />
        <g
           id="g3826"
           style="fill:#ffffff">
          <path
             id="path3822"
             d="m 249.41,261.17 c 1.2823,-0.14325 3.1716,-1.8981 3.742,-3.4739 0.60698,-1.7548 0.10794,-5.1929 -0.53374,-6.1599 -0.57033,-0.89534 -2.6032,-0.0358 -3.2082,0.78789 -0.49907,0.75208 0.3208,2.3637 -0.28618,3.4739 -0.53374,0.96695 -2.8874,1.5042 -2.9221,2.4353 0.0713,0.89532 2.1012,2.9725 3.2083,2.9367 z"
             inkscape:connector-curvature="0" />
          <path
             id="path3824"
             d="m 238.28,247.95 c 1.319,-0.85951 2.3884,-2.292 3.2083,-4.2976 0.99811,-2.0772 2.0676,-5.3004 1.8526,-7.7357 -0.31883,-2.5069 -1.6031,-5.6585 -3.4558,-6.9836 -1.82,-1.3967 -4.1718,-1.2893 -6.9156,-1.0744 -2.5666,0.14325 -6.4165,0.85953 -8.5207,2.1488 -2.0309,1.1818 -3.2786,2.8292 -3.742,5.0855 l 2.1389,-0.2507 c -0.89119,0.60884 -0.89119,0.60884 0,0 1.0348,-0.64462 3.4924,-3.1874 5.5966,-3.7604 2.1388,-0.68045 5.454,-0.89534 7.1998,-0.2507 1.818,0.53722 2.9241,2.2921 3.4578,3.7246 0.67731,1.2893 0.89117,2.7576 0.24953,4.5483 -0.60498,1.719 -1.8893,3.8678 -3.9915,6.1599 0.96147,0.89536 1.924,1.7907 2.9221,2.686 z"
             inkscape:connector-curvature="0" />
        </g>
        <path
           id="path3828"
           d="m 223.38,237.24 c -0.24953,2.7934 0.14358,4.9422 1.319,6.1599 1.1773,1.1818 2.9954,1.719 5.5966,1.3251 1.5338,0.96696 2.1042,1.6832 1.8546,2.1488 -0.28615,0.42975 -1.712,0.93114 -3.4578,0.5372 -1.6398,-0.5372 -5.4194,-1.7907 -6.3799,-3.4739 -0.85652,-1.6474 -0.50101,-4.0111 1.0674,-6.6971 z"
           inkscape:connector-curvature="0"
           style="fill:#e6e6e6" />
        <g
           id="g3834"
           style="fill:#ffffff">
          <path
             id="path3830"
             d="m 232.97,243.15 c 1.2824,-0.28651 3.1716,-1.8265 3.742,-3.5097 0.60506,-1.7549 0.10599,-5.193 -0.53369,-6.1599 -0.57034,-0.93115 -2.6033,0.0358 -3.2083,0.82372 -0.49904,0.75208 0.32085,2.3637 -0.28615,3.4739 -0.53372,1.0028 -2.8874,1.4325 -2.9221,2.3995 0.0713,0.93115 2.1022,2.9367 3.2082,2.9725 z"
             inkscape:connector-curvature="0" />
          <path
             id="path3832"
             d="m 221.06,227.54 c 0.74864,-0.42976 1.3556,-1.3609 1.818,-2.3995 0.53572,-1.2176 1.2496,-3.0441 1.0348,-4.3692 -0.14354,-1.54 -0.9268,-3.1158 -1.9606,-3.9037 -0.9615,-0.8237 -2.3518,-0.75208 -3.8856,-0.60883 -1.4249,0.0358 -3.5291,0.42976 -4.7767,1.1818 -1.1041,0.60884 -1.8527,1.6116 -2.1022,2.8651 l 1.211,-0.1432 c -0.49902,0.35814 -0.49902,0.35814 0,0 0.64168,-0.46558 1.9606,-1.6832 3.137,-2.113 1.319,-0.39395 3.031,-0.5372 4.0282,-0.14326 1.0348,0.32233 1.6398,1.2177 1.9606,2.113 0.39215,0.71625 0.53569,1.4683 0.14358,2.5427 -0.35748,1.0386 -1.1061,2.1488 -2.2458,3.4739 0.53375,0.50139 1.0674,1.0028 1.6378,1.5042 z"
             inkscape:connector-curvature="0" />
        </g>
        <path
           id="path3836"
           d="m 212.69,221.52 c -0.10596,1.6116 0.14358,2.7218 0.74864,3.4739 0.67723,0.64464 1.6744,0.89532 3.1369,0.75208 0.85454,0.5372 1.213,0.93115 1.0694,1.1818 -0.10596,0.2507 -1.0348,0.50139 -1.9606,0.32231 -1.0328,-0.2865 -2.9221,-1.0744 -3.5994,-1.9697 -0.42879,-1.0744 -0.32083,-2.1488 0.605,-3.7604 z"
           inkscape:connector-curvature="0"
           style="fill:#e6e6e6" />
        <g
           id="g3842"
           style="fill:#ffffff">
          <path
             id="path3838"
             d="m 218.07,224.82 c 0.71396,-0.17906 1.7834,-1.0028 2.1042,-1.9339 0.28422,-0.96695 0.14163,-3.0441 -0.28615,-3.4739 -0.32083,-0.57303 -1.3902,0.0358 -1.818,0.46556 -0.28415,0.35812 0.17824,1.3251 -0.14357,1.9339 -0.35547,0.50139 -1.4972,0.82372 -1.6378,1.3609 0.14163,0.46556 1.1041,1.6116 1.7814,1.6474 z"
             inkscape:connector-curvature="0" />
          <path
             id="path3840"
             d="m 198.14,201.25 c 0.74861,-0.42978 1.3536,-1.3609 1.818,-2.3995 0.53369,-1.2176 1.2476,-3.0441 1.0328,-4.3692 -0.14354,-1.54 -0.9268,-3.1158 -1.9606,-3.9037 -0.96146,-0.8237 -2.3517,-0.75209 -3.8855,-0.60883 -1.4249,0.10742 -3.5281,0.46556 -4.7768,1.2176 -1.1041,0.60883 -1.8527,1.6474 -2.1022,2.8292 l 1.213,-0.1432 c -0.49908,0.35814 -0.49908,0.35814 0,0 0.63965,-0.46558 1.9596,-1.6832 3.137,-2.113 1.319,-0.39395 3.029,-0.5372 4.0262,-0.14325 1.0348,0.32233 1.6398,1.2176 1.9606,2.113 0.3921,0.71626 0.53569,1.4684 0.14356,2.5428 -0.35548,1.0386 -1.1041,2.1488 -2.2458,3.4739 0.53372,0.5014 1.0694,1.0028 1.6398,1.5042 z"
             inkscape:connector-curvature="0" />
        </g>
        <path
           id="path3844"
           d="m 189.77,195.24 c -0.10596,1.6116 0.14357,2.7218 0.74861,3.4739 0.67729,0.64465 1.6744,0.89534 3.137,0.75209 0.85652,0.5372 1.213,0.93114 1.0694,1.1818 -0.10596,0.25069 -1.0328,0.50139 -1.9606,0.32231 -1.0328,-0.2865 -2.9221,-1.0744 -3.5994,-1.9697 -0.42776,-1.0744 -0.32083,-2.1488 0.60501,-3.7604 z"
           inkscape:connector-curvature="0"
           style="fill:#e6e6e6" />
        <path
           id="path3846"
           d="m 195.15,198.53 c 0.71396,-0.17908 1.7834,-1.0028 2.1042,-1.9339 0.28421,-0.96696 0.14357,-3.0441 -0.28616,-3.4739 -0.32085,-0.573 -1.3883,0.0358 -1.818,0.46558 -0.28418,0.35814 0.17824,1.3251 -0.1416,1.9339 -0.35745,0.50139 -1.4992,0.82372 -1.6398,1.3609 0.14061,0.46558 1.1041,1.6116 1.7814,1.6474 z"
           inkscape:connector-curvature="0"
           style="fill:#ffffff" />
        <g
           id="g3852"
           style="fill:#c9c9c9">
          <path
             id="path3848"
             d="m 281.88,282.58 c -6.4165,6.1957 -11.479,11.066 -15.577,14.756 -4.0282,3.653 -5.2045,5.9082 -8.6277,7.1965 -3.3152,1.1112 -8.3761,0.93317 -11.478,0 -3.031,-1.0028 -6.9878,-3.9036 -6.9156,-5.6585 0.28618,-1.9697 4.8114,-4.799 7.8077,-5.0129 3.0657,0 7.3434,3.7594 9.9446,4.3682 2.7092,0.46661 2.1755,0.89539 5.8115,-1.7548 3.6707,-2.9009 8.8406,-7.6999 15.791,-14.969 1.0695,0.35812 2.1389,0.71628 3.2439,1.0744 z"
             inkscape:connector-curvature="0" />
          <path
             id="path3850"
             d="m 249.23,273.02 c -0.17822,0.7879 -0.32083,1.7907 -0.4278,2.6144 -0.10792,0.7879 -0.18021,1.7907 -0.21489,2.6144 -18.359,-19.554 -36.146,-38.499 -54.469,-57.803 -18.251,-19.303 -36.075,-37.998 -54.291,-57.051 -0.39212,-2.5427 -0.53572,-4.405 -0.4278,-5.4436 0.10596,-1.146 0.46242,-1.5042 1.0694,-1.0744 l 77.64,82.765 c 0.99815,3.2232 2.3171,5.8018 4.0985,7.5924 1.7467,1.8265 3.9568,2.8651 6.4888,3.259 l 6.4868,6.7329 c -0.31882,1.8623 0.21487,3.7246 1.7487,5.4437 1.4972,1.7548 3.9916,3.3664 7.3434,4.9781 1.6398,1.7907 3.2785,3.5813 4.955,5.372 z"
             inkscape:connector-curvature="0" />
        </g>
        <path
           id="path3854"
           d="m 152.59,146.39 c -3.9935,-0.14325 -6.9522,0.57301 -8.8772,1.7548 -1.8893,1.146 -2.7438,3.1516 -2.5666,5.6227 l 67.444,69.084 c -0.60503,-2.7218 -0.17824,-4.8706 1.2843,-6.3032 1.5685,-1.54 4.1697,-2.3995 7.8058,-2.5786 l -12.761,-13.931 c -1.6764,1.719 -2.8528,3.0442 -3.6726,4.3692 -0.67731,1.3251 0.32083,3.08 -0.85454,3.0442 -1.0694,-0.17908 -3.0657,-1.6116 -5.8462,-4.1544 -1.4972,-0.39394 -2.9934,-1.0386 -4.35,-1.9339 -1.3902,-1.0386 -3.2786,-2.0414 -3.8856,-3.6888 -0.49907,-1.6832 -0.28418,-4.4051 0.64166,-6.0883 1.0694,-1.7549 2.7815,-3.08 5.4194,-4.1186 -13.261,-13.681 -26.522,-27.361 -39.781,-41.078 z"
           inkscape:connector-curvature="0"
           style="fill:#e6e6e6" />
        <g
           id="g3864"
           style="fill:#c9c9c9">
          <path
             id="path3856"
             d="m 154.76,144.27 c 0.35548,-2.1488 0.0347,-3.5455 -1.1061,-4.3334 -1.0674,-0.78789 -3.4558,-0.39394 -5.3827,-0.21487 -1.8181,0.10744 -3.5648,-0.57301 -5.6323,0.85953 -1.9962,1.4325 -4.2064,3.7604 -6.4888,7.3776 l 2.6032,4.1544 c 0.8199,-2.2921 1.8527,-3.9395 3.243,-5.2288 1.3556,-1.3609 2.9588,-1.9339 4.955,-2.3995 2.1408,-0.46559 4.7441,-0.53722 7.8088,-0.21489 z"
             inkscape:connector-curvature="0" />
          <path
             id="path3858"
             d="m 137.01,154.95 c -0.28616,0.64462 -0.42776,1.5758 -0.42776,2.7934 0,1.2176 0.1416,2.5786 0.42776,4.3692 -1.9606,-0.46558 -3.2082,-1.0744 -3.8856,-1.9697 -0.49902,-0.96696 -0.18016,-1.8981 0,-3.4739 0.1416,-1.6832 0.42776,-3.5813 0.85452,-6.0883 0.99818,1.4325 1.9962,2.9009 3.031,4.3692 z"
             inkscape:connector-curvature="0" />
          <path
             id="path3860"
             d="m 128.6,116.05 c 0.35548,-2.1488 0.0346,-3.5455 -1.1061,-4.3334 -1.0694,-0.7879 -3.4577,-0.39395 -5.3827,-0.21488 -1.818,0.10744 -3.5647,-0.57301 -5.6323,0.85953 -1.9962,1.4325 -4.2064,3.7604 -6.4888,7.3776 l 2.6033,4.1185 c 0.8199,-2.2204 1.8526,-3.9037 3.243,-5.1929 1.3556,-1.3609 2.9587,-1.9339 4.955,-2.3995 2.1398,-0.46558 4.743,-0.5372 7.8087,-0.21487 z"
             inkscape:connector-curvature="0" />
          <path
             id="path3862"
             d="m 110.84,126.69 c -0.28617,0.71626 -0.42977,1.6116 -0.42977,2.8293 0,1.2176 0.1436,2.6144 0.42977,4.3334 -1.9606,-0.39394 -3.2082,-1.0386 -3.8856,-1.9339 -0.49909,-0.96696 -0.18023,-1.8981 0,-3.4739 0.1416,-1.6832 0.42777,-3.5813 0.85458,-6.0883 0.99806,1.4325 1.9962,2.8651 3.031,4.3334 z"
             inkscape:connector-curvature="0" />
        </g>
        <path
           id="path3866"
           d="m 145.67,137.65 -18.609,-19.518 c -3.3152,-0.82372 -6.0957,-0.60883 -8.1978,0.64465 -2.1389,1.2535 -3.6014,3.4023 -4.5272,6.7329 l 19.214,20.628 c 2.2805,-3.2948 4.4906,-5.5153 6.4868,-6.9478 1.9973,-1.4325 3.9212,-1.8981 5.6333,-1.54 z"
           inkscape:connector-curvature="0"
           style="fill:#e6e6e6" />
        <path
           id="path3868"
           d="m 132.27,149.18 -18.822,-21.058 c -0.28417,1.0028 -0.42777,2.2204 -0.42777,3.259 0.0713,1.0028 0.28417,2.2204 0.64166,3.259 l 17.752,19.769 0.8555,-5.2287 z"
           inkscape:connector-curvature="0"
           style="fill:#c9c9c9" />
        <path
           id="path3870"
           d="M 118.01,110.07 67.392,57.496 c -1.1041,1.0744 -2.9935,1.7549 -5.8096,2.1846 -2.7814,0.35814 -6.3452,0.35814 -10.838,0 l 57.749,59.092 c 1.3556,-2.4711 2.7438,-4.4767 4.3123,-5.8734 1.6408,-1.5042 3.2806,-2.3995 5.2046,-2.8292 z"
           inkscape:connector-curvature="0"
           style="fill:#e6e6e6" />
        <path
           id="path3872"
           d="M 106.74,120.49 49.668,61.183 C 47.3163,60.43092 44.5002,58.5686 41.2206,55.5961 37.94,52.4803 32.6642,46.4279 30.2046,43.2401 27.9241,40.0527 26.8181,37.7607 27.1755,36.5072 L 4.2545,13.4792 c -0.3208,1.1818 -0.39214,2.2921 -0.21485,3.4739 0.24946,1.1102 0.64164,2.1488 1.3189,3.259 l 92.754,97.305 7.1305,7.2343 c 0.49909,-1.3967 0.99818,-2.8292 1.4972,-4.2618 z"
           inkscape:connector-curvature="0"
           style="fill:#c9c9c9" />
        <g
           id="g3878"
           style="fill:#e6e6e6">
          <path
             id="path3874"
             d="M 18.767,6.7493 C 17.1618,5.6391 15.4518,5.2451 13.7754,5.4242 12.0653,5.60327 9.9265,6.5344 8.6075,7.8237 7.3599,9.0055 6.6816,10.5455 6.432,12.5869 l 21.39,21.309 c 0.99811,-3.2232 1.8873,-5.5869 2.8161,-7.3776 0.92681,-1.7907 1.7467,-2.8293 2.6013,-3.259 -4.8124,-5.4794 -9.6248,-10.995 -14.473,-16.51 z"
             inkscape:connector-curvature="0" />
          <path
             id="path3876"
             d="m 69.136,51.05 c -1.9606,-2.8292 -8.5544,-9.4906 -13.19,-13.896 -4.5272,-4.5125 -9.91,-11.138 -13.83,-12.821 -3.8855,-1.7907 -6.9879,0.25069 -9.304,2.3995 -2.2101,2.113 -5.4907,5.5869 -3.6727,10.422 2.0329,4.8348 10.302,14.827 15.328,18.229 5.1699,3.2232 10.979,1.7548 14.936,1.54 3.9569,-0.39395 6.8097,-2.0056 8.4128,-3.0441 1.6764,-1.0744 3.3518,-0.03582 1.3189,-2.8293 z"
             inkscape:connector-curvature="0" />
        </g>
        <path
           id="path3880"
           d="m 51.633,39.554 c -0.96346,1.3251 -6.0244,2.9725 -8.4475,2.5786 -2.3537,-0.57302 -5.562,-3.7962 -5.6333,-5.4088 0.14358,-1.7549 3.6727,-3.9036 5.6333,-4.3692 1.9963,-0.50139 4.7055,0.50138 6.0591,1.7549 1.4972,1.2186 3.3865,4.0479 2.3884,5.4446 z"
           inkscape:connector-curvature="0" />
        <path
           id="path3882"
           d="m 17.875,3.0605 c -1.0348,-0.28651 -2.3537,-0.28651 -4.1004,0 C 12.0645,3.34701 9.1404,3.92002 7.5007,4.7795 5.8609,5.60321 4.8281,7.0357 4.2578,8.2534 3.86566,9.3278 4.07956,10.6171 4.89944,11.7273 5.54112,9.4352 6.50264,7.752 7.92854,6.5344 c 1.4625,-1.3251 3.638,-2.0056 5.4194,-2.1846 1.8893,-0.17907 3.5647,0.25069 5.4194,1.2893 -0.28619,-0.85952 -0.57139,-1.719 -0.89219,-2.5786 z"
           inkscape:connector-curvature="0"
           style="fill:#e6e6e6" />
        <path
           id="path3884"
           d="m 315.74,289.1 c -4.9906,-5.4078 -9.9813,-10.493 -14.829,-15.4 -4.8836,-4.8706 -9.6248,-9.5622 -14.366,-13.931 0.49902,-1.2534 0.5347,-2.3637 -0.28519,-3.0441 -0.7486,-0.82372 -2.0676,-1.2177 -4.0995,-1.4683 l -9.4822,-10.995 c 0.67731,-0.96696 0.67731,-1.8981 0,-2.3995 -0.60498,-0.60883 -1.8893,-0.96696 -3.8509,-1.0744 l -14.793,-14.54 c 0.71391,-1.3609 0.71391,-2.4711 0,-3.0441 -0.71393,-0.60883 -2.0329,-0.96695 -4.1004,-0.78789 -2.1389,-3.2232 -3.8142,-4.8348 -4.8837,-5.2288 -1.1041,-0.35814 -1.9963,1.8981 -1.5685,3.1874 0.53569,1.1818 2.0675,2.5427 4.5995,4.0827 l -4.2064,4.5125 c 0.21289,-0.0716 0.57037,0.10745 0.92682,0.93115 0.42776,0.64464 0.85457,1.9339 1.4249,3.4739 l 5.1698,-5.1929 14.793,14.075 -6.4868,5.0497 c 0.42776,0.32233 0.92679,0.89534 1.211,1.8623 0.42972,0.93115 0.64163,2.113 0.9288,3.6888 l 8.1632,-6.2315 9.1247,9.9561 -7.1295,7.4492 c 0.3555,0.28653 0.74857,0.71628 1.1764,1.5758 0.49905,0.82373 0.89117,1.7906 1.4625,3.1874 l 4.6332,-4.6558 17.039,18.695 -5.1689,4.7632 c 1.0694,0.35809 1.818,0.89532 2.3884,1.6116 0.5347,0.71628 0.89117,1.5052 0.92685,2.5079 l 5.1332,-4.9074 8.4841,8.0938 c 0.71292,1.541 1.4972,2.3647 2.3527,2.8661 0.92685,0.39294 2.6736,0.21387 2.9231,-0.39398 0.3208,-0.75208 1.0694,-1.0396 -1.0695,-3.4739 -2.0676,-2.4343 -5.8105,-6.0525 -11.372,-10.995 l -17.538,-18.444 1.5685,-1.8623 c 11.621,12.75 19.82,21.094 24.989,25.607 5.1688,4.4051 7.0582,4.6557 5.8105,0.89435 z"
           inkscape:connector-curvature="0"
           style="fill:#ffffff" />
        <g
           id="g3894"
           style="fill:#e6e6e6">
          <path
             id="path3886"
             d="m 300.42,291.25 9.2326,10.494 c -4.0281,-0.32233 -7.2364,0.0716 -9.7674,1.1818 -2.424,1.146 -4.3133,2.8641 -5.2758,5.4446 1.1051,-3.0093 1.8536,-5.4794 2.1032,-7.8093 0.32083,-2.3279 0.14255,-4.226 -0.39212,-5.8366 1.3546,-1.147 2.7092,-2.294 4.0995,-3.4749 z"
             inkscape:connector-curvature="0" />
          <path
             id="path3888"
             d="m 293.39,281.58 -13.582,-13.43 -3.1726,2.5428 c 1.2476,2.4711 1.8537,4.3692 2.1032,5.8376 0.28516,1.4684 -0.0713,2.2205 -0.78424,2.6502 l 6.9868,1.8623 -0.5347,5.0497 c 1.1407,-0.17908 2.2101,-0.17908 3.0656,-0.14325 0.92682,0 1.7111,0.17905 2.3527,0.39395 1.1764,-1.5758 2.3528,-3.1516 3.5648,-4.7632 z"
             inkscape:connector-curvature="0" />
          <path
             id="path3890"
             d="m 275.82,255.58 -5.8095,-5.8376 -7.5236,5.9808 c 0.32083,1.1102 0.32083,2.3995 0.14358,3.8679 -0.17725,1.4684 -0.53372,3.0083 -1.213,4.7632 0.46445,-0.39392 1.5338,-0.75204 2.9241,-0.93115 1.4249,-0.21487 3.4578,-0.39392 5.8095,-0.39392 1.8904,-2.4711 3.7796,-4.9423 5.6689,-7.4492 z"
             inkscape:connector-curvature="0" />
          <path
             id="path3892"
             d="m 262.88,241.54 -11.621,-10.493 -5.1333,4.5125 c 0.32085,0.96696 0.49912,2.113 0.39218,3.4381 -0.0367,1.3251 -0.21489,2.686 -0.67734,4.3692 2.1389,-0.32233 4.2064,-0.50139 6.3452,-0.2507 2.1369,0.10745 4.348,0.64464 6.4868,1.3251 1.3912,-0.96696 2.7824,-1.9339 4.2074,-2.9009 z"
             inkscape:connector-curvature="0" />
        </g>
        <g
           id="g3908"
           style="fill:#ffffff">
          <path
             id="path3896"
             d="m 231.05,208.56 -7.5216,-7.4492 -5.56,6.2315 6.6294,6.2315 6.4522,-5.0139 z"
             inkscape:connector-curvature="0" />
          <path
             id="path3898"
             d="m 220.35,198.71 -9.5189,-8.8817 -5.0243,4.9064 9.6604,9.1682 z"
             inkscape:connector-curvature="0" />
          <path
             id="path3900"
             d="m 195.51,176.83 c -2.0676,1.7548 -3.4231,2.9009 -4.2064,3.4381 -0.607,0.42975 0.67729,0.25069 -0.1436,-0.39397 -0.81988,-0.71626 -2.3537,-2.0414 -4.7421,-3.832 l 5.2758,-3.7246 c 1.2496,1.5042 2.532,3.0083 3.8162,4.5125 z"
             inkscape:connector-curvature="0" />
          <path
             id="path3902"
             d="m 185.35,166.23 -3.5667,-3.8678 -3.9568,3.5813 5.0262,5.0497 3.0311,-3.4381 -0.5337,-1.3251 z"
             inkscape:connector-curvature="0" />
          <path
             id="path3904"
             d="m 237.14,206.66 c -5.061,-4.4767 -10.302,-9.4189 -15.863,-14.97 -5.5966,-5.5869 -11.229,-11.639 -17.29,-18.301 0.5704,-1.6832 0.5704,-2.7934 0,-3.3306 -0.46239,-0.5372 -1.5318,-0.71626 -3.0656,-0.14326 l -7.7711,-7.4134 c 0.64168,-0.93115 0.67734,-1.6832 0.106,-2.2562 -0.53374,-0.64464 -1.6745,-1.0028 -3.4212,-1.2177 -1.7121,-2.0772 -3.2082,-3.4023 -4.35,-4.1185 -1.1764,-0.71628 -2.2804,-0.71628 -2.6379,-0.14325 -0.17824,0.42976 0.0713,1.3609 1.1774,2.7934 1.0694,1.3251 1.9596,1.4325 5.56,5.3004 3.8509,3.8678 9.304,9.7054 16.897,17.799 l -7.6642,7.1627 c 1.2823,0.0716 2.0309,0.46558 2.6379,0.7879 0.49902,0.42976 0.85452,0.78789 0.67726,1.4683 l 7.3781,-6.1241 c 5.0629,4.226 9.9119,8.9175 15.08,14.075 5.1699,5.193 10.231,10.637 15.578,16.725 1.5685,0.2865 2.1389,-0.0716 1.5685,-1.4684 -0.49709,-1.4325 -2.0299,-3.5097 -4.5965,-6.6255 z"
             inkscape:connector-curvature="0" />
          <path
             id="path3906"
             d="m 225.38,217.19 c 1.2477,-1.2893 2.3884,-2.6144 3.7073,-3.832 1.319,-1.2535 2.6379,-2.5428 4.0985,-3.7246 l 1.7121,1.8623 -8.8772,8.8817 c 0.0367,-0.60886 0,-1.0028 -0.10593,-1.5758 -0.10693,-0.57301 -0.28516,-1.1102 -0.53473,-1.6116 z"
             inkscape:connector-curvature="0" />
        </g>
        <g
           id="g3916"
           style="fill:#e6e6e6">
          <path
             id="path3910"
             d="m 241.74,222.92 -7.5216,-7.1627 -8.0573,9.025 c 0.67728,-0.21487 2.1755,-0.39395 4.4926,-0.14326 2.3518,0.14326 5.5253,0.53722 9.5169,1.1818 0.50002,-0.96696 1.0337,-1.9339 1.5694,-2.9009 z"
             inkscape:connector-curvature="0" />
          <path
             id="path3912"
             d="m 203.17,180.66 -5.4194,3.9753 h -5.1332 l -1.319,-1.719 7.2721,-6.2673 4.5995,4.0111 z"
             inkscape:connector-curvature="0" />
          <path
             id="path3914"
             d="m 198.04,173.35 -13.082,-12.893 -2.1042,1.2177 13.19,13.144 1.9962,-1.4684 z"
             inkscape:connector-curvature="0" />
        </g>
      </g>
    </g>
    <flowRoot
       xml:space="preserve"
       id="flowRoot4055"
       style="font-style:normal;font-weight:normal;font-size:40px;line-height:1.25;font-family:sans-serif;letter-spacing:0px;word-spacing:0px;fill:#000000;fill-opacity:1;stroke:none"><flowRegion
         id="flowRegion4057"><rect
           id="rect4059"
           width="28.284271"
           height="53.740116"
           x="65.053825"
           y="273.99155" /></flowRegion><flowPara
         id="flowPara4061"></flowPara></flowRoot>    <text
       xml:space="preserve"
       style="font-style:normal;font-variant:normal;font-weight:bold;font-stretch:normal;font-size:29.49620056px;line-height:1.25;font-family:'Berlin Sans FB Demi';-inkscape-font-specification:'Berlin Sans FB Demi, Bold';font-variant-ligatures:normal;font-variant-caps:normal;font-variant-numeric:normal;font-feature-settings:normal;text-align:start;letter-spacing:0px;word-spacing:0px;writing-mode:lr-tb;text-anchor:start;fill:#000000;fill-opacity:1;stroke:none;stroke-width:0.73740476"
       x="6.7011352"
       y="26.684591"
       id="text4053"
       transform="scale(0.64854044,1.5419239)"><tspan
         sodipodi:role="line"
         id="tspan4051"
         x="6.7011352"
         y="26.684591"
         style="font-style:normal;font-variant:normal;font-weight:bold;font-stretch:normal;font-size:29.49620056px;font-family:'Berlin Sans FB Demi';-inkscape-font-specification:'Berlin Sans FB Demi, Bold';font-variant-ligatures:normal;font-variant-caps:normal;font-variant-numeric:normal;font-feature-settings:normal;text-align:start;writing-mode:lr-tb;text-anchor:start;stroke-width:0.73740476">OpenFlute</tspan><tspan
         sodipodi:role="line"
         x="6.7011352"
         y="63.55484"
         style="font-style:normal;font-variant:normal;font-weight:bold;font-stretch:normal;font-size:29.49620056px;font-family:'Berlin Sans FB Demi';-inkscape-font-specification:'Berlin Sans FB Demi, Bold';font-variant-ligatures:normal;font-variant-caps:normal;font-variant-numeric:normal;font-feature-settings:normal;text-align:start;writing-mode:lr-tb;text-anchor:start;stroke-width:0.73740476"
         id="tspan4089" /></text>
    <text
       xml:space="preserve"
       style="font-style:normal;font-weight:normal;font-size:10.58333302px;line-height:1.25;font-family:sans-serif;letter-spacing:0px;word-spacing:0px;fill:#000000;fill-opacity:1;stroke:none;stroke-width:0.26458332"
       x="120.38541"
       y="64.960419"
       id="text4093"><tspan
         sodipodi:role="line"
         id="tspan4091"
         x="120.38541"
         y="74.615913"
         style="stroke-width:0.26458332" /></text>
    <text
       xml:space="preserve"
       style="font-style:normal;font-variant:normal;font-weight:bold;font-stretch:normal;font-size:10.58333302px;line-height:1.25;font-family:'Berlin Sans FB Demi';-inkscape-font-specification:'Berlin Sans FB Demi, Bold';font-variant-ligatures:normal;font-variant-caps:normal;font-variant-numeric:normal;font-feature-settings:normal;text-align:start;letter-spacing:0px;word-spacing:0px;writing-mode:lr-tb;text-anchor:start;fill:#000000;fill-opacity:1;stroke:none;stroke-width:0.26458332"
       x="74.87709"
       y="53.054169"
       id="text4097"><tspan
         sodipodi:role="line"
         id="tspan4095"
         x="74.87709"
         y="53.054169"
         style="font-style:normal;font-variant:normal;font-weight:bold;font-stretch:normal;font-size:10.58333302px;font-family:'Berlin Sans FB Demi';-inkscape-font-specification:'Berlin Sans FB Demi, Bold';font-variant-ligatures:normal;font-variant-caps:normal;font-variant-numeric:normal;font-feature-settings:normal;text-align:start;writing-mode:lr-tb;text-anchor:start;stroke-width:0.26458332">.org</tspan></text>
    <text
       xml:space="preserve"
       style="font-style:normal;font-weight:normal;font-size:13.74435616px;line-height:1.25;font-family:sans-serif;letter-spacing:0px;word-spacing:0px;fill:#000000;fill-opacity:1;stroke:none;stroke-width:0.34360889"
       x="58.674534"
       y="126.77045"
       id="text4101"
       transform="scale(0.92874309,1.076724)"><tspan
         sodipodi:role="line"
         x="58.674534"
         y="126.77045"
         style="font-style:normal;font-variant:normal;font-weight:bold;font-stretch:normal;font-size:13.74435616px;font-family:'Berlin Sans FB Demi';-inkscape-font-specification:'Berlin Sans FB Demi, Bold';font-variant-ligatures:normal;font-variant-caps:normal;font-variant-numeric:normal;font-feature-settings:normal;text-align:start;writing-mode:lr-tb;text-anchor:start;stroke-width:0.34360889"
         id="tspan4119">A free way to </tspan><tspan
         sodipodi:role="line"
         x="58.674534"
         y="144.38303"
         style="font-style:normal;font-variant:normal;font-weight:bold;font-stretch:normal;font-size:13.74435616px;font-family:'Berlin Sans FB Demi';-inkscape-font-specification:'Berlin Sans FB Demi, Bold';font-variant-ligatures:normal;font-variant-caps:normal;font-variant-numeric:normal;font-feature-settings:normal;text-align:start;writing-mode:lr-tb;text-anchor:start;stroke-width:0.34360889"
         id="tspan4131">learn by yourself!</tspan></text>
  </g>
</svg>
